<svg width="525" height="490" viewBox="0 0 525 490" fill="none" xmlns="http://www.w3.org/2000/svg">
<path d="M248.336 476.967C359.409 476.967 449.452 472.451 449.452 466.88C449.452 461.31 359.409 456.794 248.336 456.794C137.263 456.794 47.2209 461.31 47.2209 466.88C47.2209 472.451 137.263 476.967 248.336 476.967Z" fill="#43916F"/>
<path opacity="0.7" d="M248.336 476.967C359.409 476.967 449.452 472.451 449.452 466.88C449.452 461.31 359.409 456.794 248.336 456.794C137.263 456.794 47.2209 461.31 47.2209 466.88C47.2209 472.451 137.263 476.967 248.336 476.967Z" fill="white"/>
<path d="M485.038 490C506.66 490 524.188 486.02 524.188 481.11C524.188 476.2 506.66 472.22 485.038 472.22C463.416 472.22 445.888 476.2 445.888 481.11C445.888 486.02 463.416 490 485.038 490Z" fill="#43916F"/>
<path opacity="0.7" d="M485.038 490C506.66 490 524.188 486.02 524.188 481.11C524.188 476.2 506.66 472.22 485.038 472.22C463.416 472.22 445.888 476.2 445.888 481.11C445.888 486.02 463.416 490 485.038 490Z" fill="white"/>
<path d="M126.859 437.817C125.071 435.051 122.601 431.05 119.744 426.135C118.934 424.72 118.111 423.215 117.274 421.645C117.879 421.259 122.845 418.12 124.389 415.804C125.817 413.733 126.962 410.658 126.061 408.188C125.707 407.068 124.922 406.134 123.881 405.592C122.839 405.049 121.624 404.942 120.504 405.293L120.053 405.46C116.657 407.068 115.55 413.733 115.975 417.039C115.975 417.232 116.618 419.715 116.953 420.976L115.434 418.133C114.701 416.705 114.006 415.174 113.234 413.707L112.179 411.327C111.806 410.529 111.536 409.731 111.215 408.921C110.764 407.724 110.353 406.464 109.928 405.203C111.356 404.534 115.795 402.501 117.416 400.713C119.037 398.924 120.709 396.03 120.259 393.418C120.078 392.259 119.446 391.219 118.502 390.525C117.557 389.831 116.375 389.539 115.216 389.712L114.727 389.815C111.137 390.883 109.027 397.303 108.95 400.648C108.953 401.208 108.996 401.767 109.079 402.321C108.719 401.034 108.345 399.838 108.024 398.577C107.098 394.975 106.274 391.282 105.451 387.603C105.283 386.831 105.103 386.059 104.91 385.3C106.197 384.746 110.919 382.559 112.63 380.681C114.341 378.802 115.936 375.998 115.473 373.399C115.289 372.237 114.653 371.195 113.703 370.5C112.753 369.806 111.567 369.516 110.404 369.694L109.941 369.797C106.351 370.864 104.241 377.297 104.164 380.642C104.164 380.758 104.164 381.607 104.319 382.546C103.83 380.552 103.315 378.558 102.749 376.602C101.786 373.24 100.604 369.943 99.2109 366.735C99.6612 366.554 105.271 364.161 107.162 362.026C108.847 360.173 110.468 357.343 110.005 354.757C109.828 353.593 109.195 352.548 108.247 351.851C107.299 351.153 106.112 350.861 104.949 351.038C104.788 351.059 104.628 351.094 104.473 351.141C100.883 352.209 98.7863 358.642 98.6963 361.987C98.6963 362.206 98.9665 365.268 99.108 366.361V366.258C97.6557 363.142 95.9338 360.159 93.9617 357.343C92.1966 354.833 90.2939 352.424 88.2623 350.125C86.3967 347.976 84.557 346.124 82.923 344.438C82.0224 343.564 81.1862 342.779 80.3499 342.058C80.3499 342.058 78.6002 337.877 78.4587 337.62C76.7861 334.763 71.8457 330.119 68.1662 330.917C67.0267 331.197 66.045 331.918 65.437 332.921C64.829 333.925 64.6445 335.129 64.924 336.269C64.924 336.423 65.0141 336.577 65.0656 336.732C65.8761 339.305 68.6679 341.003 71.0352 341.775C73.4025 342.547 78.7546 342.2 80.0411 342.084C80.8388 342.856 81.6879 343.679 82.6143 344.657C84.2096 346.317 86.0108 348.195 87.7605 350.344C88.2494 350.923 88.7383 351.63 89.1886 352.184C88.1336 351.322 86.6798 350.151 86.5254 350.048C83.6821 348.259 77.185 346.445 74.3159 348.838C73.8763 349.219 73.5162 349.682 73.2562 350.202C72.9961 350.722 72.8413 351.288 72.8007 351.867C72.7601 352.447 72.8343 353.029 73.0193 353.58C73.2043 354.131 73.4963 354.64 73.8785 355.078C73.9809 355.211 74.0973 355.331 74.2259 355.438C76.1171 357.291 79.3721 357.523 81.8423 357.15C84.3125 356.777 88.957 353.895 90.0377 353.29C91.1056 354.718 92.1734 356.133 93.2027 357.69C95.0914 360.503 96.7274 363.478 98.0916 366.58C98.1688 366.76 98.2203 366.953 98.3103 367.133C97.8729 366.632 95.2354 363.968 95.0167 363.788C92.4436 361.704 86.1394 359.182 83.0131 361.215C82.0467 361.897 81.3902 362.934 81.1875 364.099C80.9849 365.264 81.2528 366.462 81.9324 367.429C82.0196 367.551 82.1142 367.667 82.2154 367.777C83.8751 369.835 87.0915 370.35 89.5874 370.35C92.4307 370.26 98.1302 367.391 98.3489 367.275C99.6317 370.407 100.702 373.622 101.552 376.898C102.209 379.304 102.762 381.787 103.289 384.27C102.71 383.614 100.253 381.144 100.06 380.99C97.4869 378.893 91.1828 376.371 88.0436 378.416C87.0784 379.089 86.4198 380.117 86.2123 381.275C86.0048 382.433 86.2655 383.626 86.9371 384.592L87.233 384.978C88.9184 387.024 92.122 387.551 94.6179 387.551C97.4741 387.448 102.878 384.695 103.328 384.502C103.572 385.621 103.83 386.766 104.061 387.886C104.833 391.604 105.579 395.322 106.441 398.963C106.724 400.249 107.059 401.536 107.393 402.707C106.48 401.742 104.82 400.031 104.614 399.863C102.041 397.754 95.7243 395.245 92.598 397.29C91.632 397.965 90.9731 398.996 90.7657 400.156C90.5582 401.316 90.8193 402.511 91.4915 403.479C91.583 403.609 91.6818 403.733 91.7875 403.852C93.4728 405.91 96.6764 406.489 99.1723 406.425C101.668 406.361 106.3 404.148 107.599 403.582C108.178 405.627 108.783 407.673 109.478 409.628C109.812 410.478 110.082 411.352 110.417 412.202C110.751 413.051 111.086 413.81 111.433 414.595C112.167 416.203 112.848 417.695 113.582 419.175C113.942 419.921 114.302 420.603 114.663 421.336C113.878 420.23 112.617 418.493 112.475 418.351C110.211 415.868 104.383 412.446 100.986 414.003C100.463 414.258 99.9947 414.614 99.609 415.05C99.2232 415.487 98.9275 415.995 98.7386 416.546C98.5498 417.097 98.4716 417.68 98.5084 418.262C98.5453 418.843 98.6966 419.411 98.9536 419.934C98.9536 420.075 99.108 420.217 99.1852 420.358C100.613 422.648 103.624 423.703 106.107 423.987C108.847 424.308 114.47 422.558 115.113 422.301C116.001 424.077 116.888 425.775 117.686 427.37C120.413 432.401 122.832 436.466 124.608 439.309C126.383 442.153 127.451 443.735 127.451 443.735C127.548 443.881 127.673 444.005 127.819 444.101C127.965 444.197 128.13 444.262 128.302 444.292C128.474 444.322 128.65 444.316 128.82 444.276C128.99 444.236 129.15 444.161 129.291 444.057C129.435 443.96 129.557 443.836 129.652 443.691C129.746 443.545 129.81 443.382 129.841 443.212C129.871 443.041 129.866 442.866 129.827 442.698C129.787 442.529 129.715 442.37 129.612 442.23C129.612 442.23 128.673 440.57 126.859 437.817Z" fill="#43916F"/>
<path d="M90.1148 352.569C90.1148 352.569 95.261 348.491 96.6248 345.866C97.7441 343.654 98.5546 340.489 97.3839 338.147C96.9056 337.076 96.0218 336.239 94.9266 335.819C93.8314 335.399 92.6144 335.431 91.5429 335.908L91.1054 336.127C87.9276 338.108 87.5803 344.863 88.3908 348.118C88.5066 348.362 90.1148 352.608 90.1148 352.569Z" fill="#43916F"/>
<path d="M123.913 440.236C120.902 438.949 116.605 436.981 111.562 434.42C110.147 433.687 108.577 432.889 107.008 432.027C107.329 431.384 109.722 426.019 109.709 423.253C109.709 420.757 109.015 417.554 106.866 415.984C105.957 415.242 104.79 414.891 103.622 415.01C102.454 415.128 101.381 415.705 100.639 416.614L100.343 417.013C98.4004 420.23 101.141 426.405 103.341 428.927C103.482 429.107 105.361 430.818 106.326 431.693L103.482 430.123C102.054 429.339 100.639 428.477 99.211 427.64L97.0496 426.212C96.2905 425.762 95.6215 425.234 94.9139 424.784C93.8717 424.051 92.8296 423.227 91.8132 422.404C92.6881 420.976 95.1969 416.91 95.57 414.517C95.9431 412.124 95.7244 408.818 93.8846 406.901C93.1018 406.026 92.0044 405.497 90.8326 405.43C89.6608 405.362 88.51 405.762 87.6319 406.541C87.5097 406.654 87.3937 406.775 87.2846 406.901C84.8787 409.744 86.6541 416.293 88.4296 419.123C88.7438 419.574 89.0877 420.004 89.4588 420.41C88.481 419.574 87.4775 418.737 86.5126 417.837C83.7722 415.341 81.0319 412.69 78.3043 410.117L76.5546 408.496C77.3008 407.351 80.0669 402.913 80.4143 400.417C80.7617 397.921 80.5687 394.717 78.7289 392.787C78.3403 392.353 77.8696 391.999 77.3439 391.747C76.8182 391.495 76.2479 391.349 75.6657 391.318C75.0834 391.287 74.5008 391.371 73.9513 391.566C73.4017 391.761 72.8961 392.062 72.4634 392.453L72.1288 392.787C69.723 395.631 71.4984 402.192 73.2868 405.023C73.6408 405.551 74.0321 406.054 74.4575 406.528C72.9523 405.125 71.4212 403.749 69.8774 402.437C67.2247 400.159 64.4223 398.061 61.489 396.158C61.7592 395.746 65.1042 390.639 65.5288 387.847C65.9019 385.364 65.6832 382.147 63.8434 380.218C63.4517 379.782 62.9778 379.429 62.4489 379.178C61.9201 378.927 61.3468 378.783 60.762 378.754C60.1772 378.725 59.5926 378.812 59.0417 379.011C58.4908 379.209 57.9845 379.514 57.5521 379.909L57.2433 380.218C54.8375 383.061 56.6129 389.622 58.3884 392.453C58.517 392.659 60.4469 395.026 61.1545 395.888L61.0516 395.811C58.1259 394.017 55.0476 392.484 51.8526 391.231C48.9959 390.121 46.0794 389.172 43.1169 388.387C40.3765 387.615 37.8162 387.101 35.5519 386.638C34.2653 386.406 33.1975 386.213 32.1554 386.033C32.1554 386.033 28.3729 383.524 28.1156 383.395C25.1307 381.903 18.4535 380.822 15.8418 383.46C15.0454 384.327 14.6253 385.475 14.6735 386.652C14.7218 387.829 15.2344 388.939 16.0991 389.738L16.4593 390.034C18.5307 391.694 21.7857 391.565 24.1787 390.948C26.5717 390.33 30.856 387.088 31.8981 386.226C32.9916 386.419 34.1624 386.65 35.4361 386.921C37.6876 387.422 40.2221 388.001 42.9368 388.825C43.6701 389.043 44.3648 389.314 45.1754 389.545C43.8888 389.404 41.9718 389.224 41.8046 389.236C38.4467 389.236 32.0267 391.372 30.9331 394.936C30.7774 395.498 30.7345 396.085 30.807 396.663C30.8795 397.242 31.0658 397.8 31.3553 398.306C31.6448 398.812 32.0317 399.256 32.4937 399.611C32.9556 399.967 33.4834 400.228 34.0466 400.378C34.198 400.425 34.3529 400.459 34.5098 400.481C37.0829 400.996 39.9519 399.387 41.8046 397.638C43.6572 395.888 46.076 390.948 46.4877 389.918C48.1345 390.472 49.8327 391.089 51.5439 391.835C54.6817 393.135 57.6959 394.716 60.5498 396.557L61.0258 396.917C60.3697 396.737 56.7544 395.965 56.4585 395.939C53.1135 395.643 46.5005 396.994 45.0725 400.455C44.8598 401.001 44.7577 401.584 44.7722 402.17C44.7867 402.756 44.9174 403.334 45.1568 403.869C45.3962 404.404 45.7394 404.886 46.1667 405.287C46.5939 405.688 47.0966 406.001 47.6456 406.206C47.7886 406.265 47.9346 406.317 48.083 406.361C50.6561 407.145 53.6024 405.859 55.6351 404.405C57.9767 402.732 61.1287 397.2 61.2445 397.007C64.0362 398.912 66.7007 400.996 69.2212 403.247C71.0996 404.92 72.9394 406.669 74.7534 408.393C73.8914 408.188 70.4821 407.467 70.2247 407.441C66.9054 407.133 60.2668 408.496 58.8387 411.944C58.4079 413.036 58.4273 414.255 58.8927 415.332C59.358 416.41 60.2314 417.26 61.3217 417.695L61.7849 417.85C64.358 418.647 67.3171 417.361 69.3499 415.894C71.6271 414.26 74.6762 408.998 74.9207 408.548L77.4038 410.992C80.0927 413.643 82.7687 416.344 85.4834 418.905C86.4226 419.792 87.4003 420.641 88.3395 421.478C87.053 421.182 84.6728 420.693 84.4799 420.667C81.1348 420.371 74.509 421.735 73.0938 425.183C72.8784 425.723 72.7714 426.3 72.7789 426.881C72.7865 427.462 72.9084 428.036 73.1378 428.57C73.3672 429.104 73.6995 429.588 74.1158 429.993C74.5321 430.399 75.0242 430.718 75.564 430.934L76.04 431.088C78.6131 431.873 81.5593 430.587 83.5921 429.133C85.6249 427.679 88.2881 423.305 89.0214 422.018C90.6296 423.446 92.2507 424.784 93.9103 426.032C94.6565 426.56 95.3384 427.139 96.0846 427.615L98.2461 429.03C99.7513 429.956 101.089 430.831 102.505 431.667L104.602 432.877C103.315 432.375 101.308 431.59 101.128 431.59C97.8729 430.78 91.17 431.127 89.1501 434.318C88.8559 434.821 88.6639 435.377 88.5849 435.955C88.5059 436.533 88.5415 437.12 88.6897 437.684C88.8378 438.248 89.0956 438.777 89.4483 439.242C89.8011 439.706 90.2418 440.096 90.7454 440.39C90.8814 440.473 91.0233 440.546 91.17 440.609C93.5372 441.754 96.7022 440.943 98.8893 439.824C101.347 438.537 105.052 433.983 105.502 433.391C107.226 434.382 108.899 435.321 110.494 436.157C115.525 438.846 119.822 440.905 122.858 442.307C125.894 443.709 127.644 444.443 127.644 444.443C127.972 444.567 128.335 444.557 128.655 444.413C128.975 444.27 129.224 444.005 129.349 443.677C129.473 443.35 129.463 442.986 129.319 442.666C129.175 442.347 128.911 442.097 128.583 441.973C128.583 441.973 126.949 441.522 123.913 440.236Z" fill="#43916F"/>
<path d="M46.2817 389.391C46.2817 389.391 48.3402 383.138 48.0057 380.231C47.7098 377.735 46.5776 374.66 44.3776 373.322C43.3825 372.69 42.1777 372.479 41.0273 372.735C39.8769 372.991 38.8748 373.692 38.2407 374.685C38.1538 374.817 38.0764 374.955 38.0091 375.097C36.4395 378.519 39.8875 384.335 42.3706 386.586C42.5764 386.792 46.2689 389.468 46.2817 389.391Z" fill="#43916F"/>
<g opacity="0.4">
<path d="M126.859 437.817C125.071 435.051 122.601 431.05 119.744 426.135C118.934 424.72 118.111 423.215 117.274 421.645C117.879 421.259 122.845 418.12 124.389 415.804C125.817 413.733 126.962 410.658 126.061 408.188C125.707 407.068 124.922 406.134 123.881 405.592C122.839 405.049 121.624 404.942 120.504 405.293L120.053 405.46C116.657 407.068 115.55 413.733 115.975 417.039C115.975 417.232 116.618 419.715 116.953 420.976L115.434 418.133C114.701 416.705 114.006 415.174 113.234 413.707L112.179 411.327C111.806 410.529 111.536 409.731 111.215 408.921C110.764 407.724 110.353 406.464 109.928 405.203C111.356 404.534 115.795 402.501 117.416 400.713C119.037 398.924 120.709 396.03 120.259 393.418C120.078 392.259 119.446 391.219 118.502 390.525C117.557 389.831 116.375 389.539 115.216 389.712L114.727 389.815C111.137 390.883 109.027 397.303 108.95 400.648C108.953 401.208 108.996 401.767 109.079 402.321C108.719 401.034 108.345 399.838 108.024 398.577C107.098 394.975 106.274 391.282 105.451 387.603C105.283 386.831 105.103 386.059 104.91 385.3C106.197 384.746 110.919 382.559 112.63 380.681C114.341 378.802 115.936 375.998 115.473 373.399C115.289 372.237 114.653 371.195 113.703 370.5C112.753 369.806 111.567 369.516 110.404 369.694L109.941 369.797C106.351 370.864 104.241 377.297 104.164 380.642C104.164 380.758 104.164 381.607 104.319 382.546C103.83 380.552 103.315 378.558 102.749 376.602C101.786 373.24 100.604 369.943 99.2109 366.734C99.6612 366.554 105.271 364.161 107.162 362.026C108.847 360.173 110.468 357.343 110.005 354.757C109.828 353.593 109.195 352.548 108.247 351.851C107.299 351.153 106.112 350.861 104.949 351.038C104.788 351.059 104.628 351.094 104.473 351.141C100.883 352.209 98.7863 358.642 98.6963 361.987C98.6963 362.206 98.9665 365.268 99.108 366.361V366.258C97.6557 363.142 95.9338 360.159 93.9617 357.343C92.1966 354.833 90.2939 352.424 88.2623 350.125C86.3967 347.976 84.557 346.124 82.923 344.438C82.0224 343.563 81.1862 342.779 80.3499 342.058C80.3499 342.058 78.6002 337.877 78.4587 337.62C76.7861 334.763 71.8457 330.119 68.1662 330.917C67.0267 331.197 66.045 331.918 65.437 332.921C64.829 333.925 64.6445 335.129 64.924 336.269C64.924 336.423 65.0141 336.577 65.0656 336.732C65.8761 339.305 68.6679 341.003 71.0352 341.775C73.4025 342.547 78.7546 342.2 80.0411 342.084C80.8388 342.856 81.6879 343.679 82.6143 344.657C84.2096 346.317 86.0108 348.195 87.7605 350.344C88.2494 350.923 88.7383 351.63 89.1886 352.183C88.1336 351.321 86.6798 350.151 86.5254 350.048C83.6821 348.259 77.185 346.445 74.3159 348.838C73.8763 349.219 73.5162 349.682 73.2562 350.202C72.9961 350.722 72.8413 351.288 72.8007 351.867C72.7601 352.447 72.8343 353.029 73.0193 353.58C73.2043 354.131 73.4963 354.64 73.8785 355.078C73.9809 355.211 74.0973 355.331 74.2259 355.438C76.1171 357.291 79.3721 357.523 81.8423 357.15C84.3125 356.776 88.957 353.895 90.0377 353.29C91.1056 354.718 92.1734 356.133 93.2027 357.69C95.0914 360.503 96.7274 363.478 98.0916 366.58C98.1688 366.76 98.2203 366.953 98.3103 367.133C97.8729 366.632 95.2354 363.968 95.0167 363.788C92.4436 361.704 86.1394 359.182 83.0131 361.215C82.0467 361.897 81.3902 362.934 81.1875 364.099C80.9849 365.264 81.2528 366.461 81.9324 367.429C82.0196 367.551 82.1142 367.667 82.2154 367.777C83.8751 369.835 87.0915 370.35 89.5874 370.35C92.4307 370.26 98.1302 367.391 98.3489 367.275C99.6317 370.407 100.702 373.622 101.552 376.898C102.209 379.304 102.762 381.787 103.289 384.27C102.71 383.614 100.253 381.144 100.06 380.99C97.4869 378.892 91.1828 376.371 88.0436 378.416C87.0784 379.089 86.4198 380.117 86.2123 381.275C86.0048 382.433 86.2655 383.626 86.9371 384.592L87.233 384.978C88.9184 387.024 92.122 387.551 94.6179 387.551C97.4741 387.448 102.878 384.695 103.328 384.502C103.572 385.621 103.83 386.766 104.061 387.886C104.833 391.604 105.579 395.322 106.441 398.963C106.724 400.249 107.059 401.536 107.393 402.707C106.48 401.742 104.82 400.031 104.614 399.863C102.041 397.754 95.7243 395.245 92.598 397.29C91.632 397.965 90.9731 398.996 90.7657 400.156C90.5582 401.316 90.8193 402.511 91.4915 403.479C91.583 403.609 91.6818 403.733 91.7875 403.852C93.4728 405.91 96.6764 406.489 99.1723 406.425C101.668 406.361 106.3 404.148 107.599 403.582C108.178 405.627 108.783 407.673 109.478 409.628C109.812 410.478 110.082 411.352 110.417 412.202C110.751 413.051 111.086 413.81 111.433 414.595C112.167 416.203 112.848 417.695 113.582 419.175C113.942 419.921 114.302 420.603 114.663 421.336C113.878 420.23 112.617 418.493 112.475 418.351C110.211 415.868 104.383 412.446 100.986 414.003C100.463 414.258 99.9947 414.614 99.609 415.05C99.2232 415.487 98.9275 415.995 98.7386 416.546C98.5498 417.097 98.4716 417.68 98.5084 418.261C98.5453 418.843 98.6966 419.411 98.9536 419.934C98.9536 420.075 99.108 420.217 99.1852 420.358C100.613 422.648 103.624 423.703 106.107 423.987C108.847 424.308 114.47 422.558 115.113 422.301C116.001 424.077 116.888 425.775 117.686 427.37C120.413 432.401 122.832 436.466 124.608 439.309C126.383 442.153 127.451 443.735 127.451 443.735C127.548 443.881 127.673 444.005 127.819 444.101C127.965 444.197 128.13 444.262 128.302 444.292C128.474 444.322 128.65 444.316 128.82 444.276C128.99 444.236 129.15 444.161 129.291 444.057C129.435 443.96 129.557 443.836 129.652 443.69C129.746 443.545 129.81 443.382 129.841 443.212C129.871 443.041 129.866 442.866 129.827 442.698C129.787 442.529 129.715 442.37 129.612 442.23C129.612 442.23 128.673 440.57 126.859 437.817Z" fill="white"/>
<path d="M90.1148 352.569C90.1148 352.569 95.261 348.491 96.6248 345.866C97.7441 343.654 98.5546 340.489 97.3839 338.147C96.9056 337.076 96.0218 336.239 94.9266 335.819C93.8314 335.399 92.6144 335.431 91.5429 335.908L91.1054 336.127C87.9276 338.108 87.5803 344.863 88.3908 348.118C88.5066 348.362 90.1148 352.608 90.1148 352.569Z" fill="white"/>
<path d="M123.913 440.236C120.902 438.949 116.605 436.981 111.562 434.421C110.147 433.687 108.577 432.89 107.008 432.028C107.329 431.384 109.722 426.019 109.709 423.253C109.709 420.757 109.015 417.554 106.866 415.984C105.957 415.242 104.79 414.891 103.622 415.01C102.454 415.128 101.381 415.705 100.639 416.615L100.343 417.013C98.4004 420.23 101.141 426.405 103.341 428.927C103.482 429.107 105.361 430.818 106.326 431.693L103.482 430.123C102.054 429.339 100.639 428.477 99.211 427.64L97.0496 426.212C96.2905 425.762 95.6215 425.234 94.9139 424.784C93.8717 424.051 92.8296 423.227 91.8132 422.404C92.6881 420.976 95.1969 416.91 95.57 414.517C95.9431 412.124 95.7244 408.818 93.8846 406.901C93.1018 406.026 92.0044 405.498 90.8326 405.43C89.6608 405.362 88.51 405.762 87.6319 406.541C87.5097 406.654 87.3937 406.775 87.2846 406.901C84.8787 409.744 86.6541 416.293 88.4296 419.123C88.7438 419.574 89.0877 420.004 89.4588 420.41C88.481 419.574 87.4775 418.737 86.5126 417.837C83.7722 415.341 81.0319 412.691 78.3043 410.117L76.5546 408.496C77.3008 407.351 80.0669 402.913 80.4143 400.417C80.7617 397.921 80.5687 394.717 78.7289 392.787C78.3403 392.353 77.8696 391.999 77.3439 391.747C76.8182 391.495 76.2479 391.349 75.6657 391.318C75.0834 391.287 74.5008 391.371 73.9513 391.566C73.4017 391.761 72.8961 392.062 72.4634 392.453L72.1288 392.787C69.723 395.631 71.4984 402.192 73.2868 405.023C73.6408 405.551 74.0321 406.055 74.4575 406.528C72.9523 405.126 71.4212 403.749 69.8774 402.437C67.2247 400.159 64.4223 398.061 61.489 396.158C61.7592 395.746 65.1042 390.639 65.5288 387.847C65.9019 385.364 65.6832 382.147 63.8434 380.218C63.4517 379.783 62.9778 379.429 62.4489 379.178C61.9201 378.927 61.3468 378.783 60.762 378.754C60.1772 378.725 59.5926 378.812 59.0417 379.011C58.4908 379.209 57.9845 379.514 57.5521 379.909L57.2433 380.218C54.8375 383.061 56.6129 389.622 58.3884 392.453C58.517 392.659 60.4469 395.026 61.1545 395.888L61.0516 395.811C58.1259 394.017 55.0476 392.484 51.8526 391.231C48.9959 390.121 46.0794 389.172 43.1169 388.387C40.3765 387.615 37.8162 387.101 35.5519 386.638C34.2653 386.406 33.1975 386.213 32.1554 386.033C32.1554 386.033 28.3729 383.524 28.1156 383.395C25.1307 381.903 18.4535 380.822 15.8418 383.46C15.0454 384.327 14.6253 385.475 14.6735 386.652C14.7218 387.829 15.2344 388.939 16.0991 389.738L16.4593 390.034C18.5307 391.694 21.7857 391.565 24.1787 390.948C26.5717 390.33 30.856 387.088 31.8981 386.226C32.9916 386.419 34.1624 386.65 35.4361 386.921C37.6876 387.422 40.2221 388.001 42.9368 388.825C43.6701 389.043 44.3648 389.314 45.1754 389.545C43.8888 389.404 41.9718 389.224 41.8046 389.236C38.4467 389.236 32.0267 391.372 30.9331 394.936C30.7774 395.498 30.7345 396.085 30.807 396.663C30.8795 397.242 31.0658 397.8 31.3553 398.306C31.6448 398.812 32.0317 399.256 32.4937 399.611C32.9556 399.967 33.4834 400.228 34.0466 400.378C34.198 400.425 34.3529 400.459 34.5098 400.481C37.0829 400.996 39.9519 399.387 41.8046 397.638C43.6572 395.888 46.076 390.948 46.4877 389.918C48.1345 390.472 49.8327 391.089 51.5439 391.835C54.6817 393.135 57.6959 394.716 60.5498 396.557L61.0258 396.917C60.3697 396.737 56.7544 395.965 56.4585 395.939C53.1135 395.644 46.5005 396.994 45.0725 400.455C44.8598 401.001 44.7577 401.584 44.7722 402.17C44.7867 402.756 44.9174 403.334 45.1568 403.869C45.3962 404.404 45.7394 404.886 46.1667 405.287C46.5939 405.688 47.0966 406.001 47.6456 406.206C47.7886 406.265 47.9346 406.317 48.083 406.361C50.6561 407.145 53.6024 405.859 55.6351 404.405C57.9767 402.733 61.1287 397.2 61.2445 397.007C64.0362 398.912 66.7007 400.996 69.2212 403.247C71.0996 404.92 72.9394 406.669 74.7534 408.393C73.8914 408.188 70.4821 407.467 70.2247 407.441C66.9054 407.133 60.2668 408.496 58.8387 411.944C58.4079 413.036 58.4273 414.255 58.8927 415.332C59.358 416.41 60.2314 417.26 61.3217 417.695L61.7849 417.85C64.358 418.647 67.3171 417.361 69.3499 415.894C71.6271 414.26 74.6762 408.998 74.9207 408.548L77.4038 410.992C80.0927 413.643 82.7687 416.344 85.4834 418.905C86.4226 419.792 87.4003 420.641 88.3395 421.478C87.053 421.182 84.6728 420.693 84.4799 420.667C81.1348 420.371 74.509 421.735 73.0938 425.183C72.8784 425.723 72.7714 426.3 72.7789 426.881C72.7865 427.462 72.9084 428.036 73.1378 428.57C73.3672 429.104 73.6995 429.588 74.1158 429.993C74.5321 430.399 75.0242 430.719 75.564 430.934L76.04 431.088C78.6131 431.873 81.5593 430.587 83.5921 429.133C85.6249 427.679 88.2881 423.305 89.0214 422.018C90.6296 423.446 92.2507 424.784 93.9103 426.032C94.6565 426.56 95.3384 427.139 96.0846 427.615L98.2461 429.03C99.7513 429.956 101.089 430.831 102.505 431.667L104.602 432.877C103.315 432.375 101.308 431.59 101.128 431.59C97.8729 430.78 91.17 431.127 89.1501 434.318C88.8559 434.821 88.6639 435.377 88.5849 435.955C88.5059 436.533 88.5415 437.12 88.6897 437.684C88.8378 438.248 89.0956 438.778 89.4483 439.242C89.8011 439.706 90.2418 440.096 90.7454 440.39C90.8814 440.473 91.0233 440.546 91.17 440.609C93.5372 441.754 96.7022 440.943 98.8893 439.824C101.347 438.538 105.052 433.983 105.502 433.391C107.226 434.382 108.899 435.321 110.494 436.157C115.525 438.846 119.822 440.905 122.858 442.307C125.894 443.709 127.644 444.443 127.644 444.443C127.972 444.567 128.335 444.557 128.655 444.413C128.975 444.27 129.224 444.005 129.349 443.677C129.473 443.35 129.463 442.986 129.319 442.666C129.175 442.347 128.911 442.097 128.583 441.973C128.583 441.973 126.949 441.522 123.913 440.236Z" fill="white"/>
<path d="M46.2817 389.391C46.2817 389.391 48.3402 383.138 48.0057 380.231C47.7098 377.735 46.5776 374.66 44.3776 373.322C43.3825 372.69 42.1777 372.479 41.0273 372.735C39.8769 372.991 38.8748 373.692 38.2407 374.685C38.1538 374.817 38.0764 374.955 38.0091 375.097C36.4395 378.519 39.8875 384.335 42.3706 386.586C42.5764 386.792 46.2689 389.468 46.2817 389.391Z" fill="white"/>
</g>
<path d="M342.474 376.332C342.628 413.205 371.923 443.015 371.923 443.015C371.923 443.015 401 412.999 400.845 376.113C400.691 339.228 371.344 309.431 371.344 309.431C371.344 309.431 342.307 339.395 342.474 376.332Z" fill="#43916F"/>
<path d="M371.987 442.925L371.395 309.367" stroke="white" stroke-width="0.993857" stroke-miterlimit="10"/>
<path d="M371.615 356.841L355.185 342.624" stroke="white" stroke-width="0.993857" stroke-miterlimit="10"/>
<path d="M371.949 378.905L392.097 349.482" stroke="white" stroke-width="0.993857" stroke-miterlimit="10"/>
<path d="M371.756 391.63L347.517 370.182" stroke="white" stroke-width="0.993857" stroke-miterlimit="10"/>
<path d="M372.091 408.766L395.879 387.371" stroke="white" stroke-width="0.993857" stroke-miterlimit="10"/>
<path d="M372.155 423.562L353.397 408.844" stroke="white" stroke-width="0.993857" stroke-miterlimit="10"/>
<path d="M322.481 433.237C336.71 449.164 360.91 450.811 360.91 450.811C360.91 450.811 361.978 426.611 347.71 410.645C333.442 394.679 309.332 393.135 309.332 393.135C309.332 393.135 308.213 417.335 322.481 433.237Z" fill="#43916F"/>
<path d="M360.924 450.811L309.281 393.083" stroke="white" stroke-width="0.993857" stroke-miterlimit="10"/>
<path d="M327.627 413.604L315.057 413.745" stroke="white" stroke-width="0.993857" stroke-miterlimit="10"/>
<path d="M336.286 423.034L333.7 402.527" stroke="white" stroke-width="0.993857" stroke-miterlimit="10"/>
<path d="M341.084 428.631L322.326 428.657" stroke="white" stroke-width="0.993857" stroke-miterlimit="10"/>
<path d="M347.826 435.939L349.923 417.502" stroke="white" stroke-width="0.993857" stroke-miterlimit="10"/>
<path d="M353.552 442.333L339.747 443.169" stroke="white" stroke-width="0.993857" stroke-miterlimit="10"/>
<path d="M396.819 409.873C381.985 425.312 382.178 449.525 382.178 449.525C382.178 449.525 406.365 448.791 421.225 433.366C436.085 417.94 435.879 393.714 435.879 393.714C435.879 393.714 411.653 394.473 396.819 409.873Z" fill="#43916F"/>
<path d="M382.177 449.525L435.879 393.714" stroke="white" stroke-width="0.993857" stroke-miterlimit="10"/>
<path d="M416.786 413.565L415.705 401.021" stroke="white" stroke-width="0.993857" stroke-miterlimit="10"/>
<path d="M408.024 422.88L428.288 418.763" stroke="white" stroke-width="0.993857" stroke-miterlimit="10"/>
<path d="M402.801 428.091L401.373 409.371" stroke="white" stroke-width="0.993857" stroke-miterlimit="10"/>
<path d="M396.02 435.36L414.547 436.067" stroke="white" stroke-width="0.993857" stroke-miterlimit="10"/>
<path d="M390.076 441.535L388.211 427.833" stroke="white" stroke-width="0.993857" stroke-miterlimit="10"/>
<g opacity="0.4">
<path d="M342.474 376.332C342.629 413.205 371.924 443.015 371.924 443.015C371.924 443.015 401 412.999 400.846 376.114C400.691 339.228 371.345 309.431 371.345 309.431C371.345 309.431 342.307 339.395 342.474 376.332Z" fill="white"/>
<path d="M322.481 433.237C336.71 449.165 360.91 450.811 360.91 450.811C360.91 450.811 361.978 426.611 347.71 410.645C333.442 394.679 309.332 393.135 309.332 393.135C309.332 393.135 308.213 417.335 322.481 433.237Z" fill="white"/>
<path d="M396.819 409.873C381.985 425.312 382.178 449.525 382.178 449.525C382.178 449.525 406.365 448.791 421.225 433.366C436.085 417.94 435.879 393.714 435.879 393.714C435.879 393.714 411.653 394.473 396.819 409.873Z" fill="white"/>
</g>
<path d="M304.816 55.9011C304.945 86.7014 329.466 111.584 329.466 111.584C329.466 111.584 353.77 86.5084 353.667 55.6953C353.564 24.8821 329.016 0 329.016 0C329.016 0 304.674 25.1008 304.816 55.9011Z" fill="#43916F"/>
<path d="M329.467 111.584L328.991 0" stroke="white" stroke-width="0.993857" stroke-miterlimit="10"/>
<path d="M329.158 39.6647L315.43 27.7897" stroke="white" stroke-width="0.993857" stroke-miterlimit="10"/>
<path d="M329.454 58.0883L346.269 33.515" stroke="white" stroke-width="0.993857" stroke-miterlimit="10"/>
<path d="M329.287 68.7281L309.036 50.8063" stroke="white" stroke-width="0.993857" stroke-miterlimit="10"/>
<path d="M329.557 83.0476L349.434 65.1643" stroke="white" stroke-width="0.993857" stroke-miterlimit="10"/>
<path d="M329.609 95.4114L313.938 83.1119" stroke="white" stroke-width="0.993857" stroke-miterlimit="10"/>
<path d="M288.104 103.491C300.017 116.807 320.268 118.171 320.268 118.171C320.268 118.171 321.168 97.9331 309.255 84.63C297.341 71.327 277.091 69.9503 277.091 69.9503C277.091 69.9503 276.19 90.1751 288.104 103.491Z" fill="#43916F"/>
<path d="M320.216 118.171L277.091 69.9503" stroke="white" stroke-width="0.993857" stroke-miterlimit="10"/>
<path d="M292.426 87.0874L281.902 87.216" stroke="white" stroke-width="0.993857" stroke-miterlimit="10"/>
<path d="M299.631 94.974L297.47 77.837" stroke="white" stroke-width="0.993857" stroke-miterlimit="10"/>
<path d="M303.658 99.6442L287.975 99.6699" stroke="white" stroke-width="0.993857" stroke-miterlimit="10"/>
<path d="M309.281 105.743L311.044 90.3424" stroke="white" stroke-width="0.993857" stroke-miterlimit="10"/>
<path d="M314.067 111.095L302.539 111.789" stroke="white" stroke-width="0.993857" stroke-miterlimit="10"/>
<path d="M350.219 83.9739C337.842 96.8395 337.983 117.103 337.983 117.103C337.983 117.103 358.221 116.447 370.611 103.581C383 90.7155 382.859 70.465 382.859 70.465C382.859 70.465 362.621 71.1083 350.219 83.9739Z" fill="#43916F"/>
<path d="M337.984 117.103L382.86 70.4778" stroke="white" stroke-width="0.993857" stroke-miterlimit="10"/>
<path d="M366.906 87.0488L365.992 76.5633" stroke="white" stroke-width="0.993857" stroke-miterlimit="10"/>
<path d="M359.585 94.8453L376.503 91.3973" stroke="white" stroke-width="0.993857" stroke-miterlimit="10"/>
<path d="M355.211 99.1939L354.015 83.5622" stroke="white" stroke-width="0.993857" stroke-miterlimit="10"/>
<path d="M349.551 105.267L365.041 105.858" stroke="white" stroke-width="0.993857" stroke-miterlimit="10"/>
<path d="M344.584 110.426L343.014 98.9881" stroke="white" stroke-width="0.993857" stroke-miterlimit="10"/>
<g opacity="0.4">
<path d="M304.816 55.9011C304.945 86.7014 329.466 111.584 329.466 111.584C329.466 111.584 353.77 86.5084 353.667 55.6953C353.564 24.8821 329.016 0 329.016 0C329.016 0 304.674 25.1008 304.816 55.9011Z" fill="white"/>
<path d="M288.104 103.491C300.017 116.807 320.268 118.171 320.268 118.171C320.268 118.171 321.168 97.9331 309.255 84.6301C297.341 71.327 277.091 69.9504 277.091 69.9504C277.091 69.9504 276.19 90.1752 288.104 103.491Z" fill="white"/>
<path d="M350.219 83.9739C337.842 96.8396 337.983 117.103 337.983 117.103C337.983 117.103 358.221 116.447 370.611 103.581C383 90.7155 382.859 70.465 382.859 70.465C382.859 70.465 362.621 71.1083 350.219 83.9739Z" fill="white"/>
</g>
<path d="M131.876 402.295C131.979 426.302 151.072 445.665 151.072 445.665C151.072 445.665 170.01 426.135 169.894 402.128C169.778 378.121 150.686 358.758 150.686 358.758C150.686 358.758 131.786 378.301 131.876 402.295Z" fill="#43916F"/>
<path d="M151.072 445.665L150.686 358.758" stroke="white" stroke-width="0.993857" stroke-miterlimit="10"/>
<path d="M150.828 389.648L140.149 380.411" stroke="white" stroke-width="0.993857" stroke-miterlimit="10"/>
<path d="M151.059 404.006L164.157 384.862" stroke="white" stroke-width="0.993857" stroke-miterlimit="10"/>
<path d="M150.931 412.292L135.145 398.345" stroke="white" stroke-width="0.993857" stroke-miterlimit="10"/>
<path d="M151.149 423.446L166.627 409.526" stroke="white" stroke-width="0.993857" stroke-miterlimit="10"/>
<path d="M151.188 433.07L138.979 423.498" stroke="white" stroke-width="0.993857" stroke-miterlimit="10"/>
<path d="M118.921 439.374C128.185 449.743 143.919 450.76 143.919 450.76C143.919 450.76 144.627 435 135.389 424.63C126.152 414.26 110.366 413.244 110.366 413.244C110.366 413.244 109.581 429.004 118.921 439.374Z" fill="#43916F"/>
<path d="M143.867 450.811L110.275 413.244" stroke="white" stroke-width="0.993857" stroke-miterlimit="10"/>
<path d="M122.228 426.598L114.032 426.701" stroke="white" stroke-width="0.993857" stroke-miterlimit="10"/>
<path d="M127.85 432.735L126.151 419.381" stroke="white" stroke-width="0.993857" stroke-miterlimit="10"/>
<path d="M130.976 436.376L118.766 436.389" stroke="white" stroke-width="0.993857" stroke-miterlimit="10"/>
<path d="M135.363 441.124L136.714 429.133" stroke="white" stroke-width="0.993857" stroke-miterlimit="10"/>
<path d="M139.082 445.305L130.101 445.845" stroke="white" stroke-width="0.993857" stroke-miterlimit="10"/>
<path d="M167.244 424.167C157.595 434.202 157.711 449.962 157.711 449.962C157.711 449.962 173.471 449.486 183.133 439.464C192.796 429.442 192.59 413.643 192.59 413.643C192.59 413.643 176.932 414.144 167.244 424.167Z" fill="#43916F"/>
<path d="M157.711 449.962L192.654 413.655" stroke="white" stroke-width="0.993857" stroke-miterlimit="10"/>
<path d="M180.239 426.572L179.531 418.403" stroke="white" stroke-width="0.993857" stroke-miterlimit="10"/>
<path d="M174.526 432.632L187.713 429.956" stroke="white" stroke-width="0.993857" stroke-miterlimit="10"/>
<path d="M171.129 436.016L170.203 423.845" stroke="white" stroke-width="0.993857" stroke-miterlimit="10"/>
<path d="M166.717 440.75L178.785 441.214" stroke="white" stroke-width="0.993857" stroke-miterlimit="10"/>
<path d="M162.844 444.777L161.635 435.861" stroke="white" stroke-width="0.993857" stroke-miterlimit="10"/>
<g opacity="0.4">
<path d="M131.876 402.295C131.979 426.302 151.072 445.665 151.072 445.665C151.072 445.665 170.01 426.135 169.894 402.128C169.778 378.121 150.686 358.758 150.686 358.758C150.686 358.758 131.786 378.301 131.876 402.295Z" fill="white"/>
<path d="M118.921 439.374C128.185 449.743 143.919 450.76 143.919 450.76C143.919 450.76 144.627 434.999 135.389 424.63C126.152 414.26 110.366 413.244 110.366 413.244C110.366 413.244 109.581 429.004 118.921 439.374Z" fill="white"/>
<path d="M167.244 424.167C157.595 434.202 157.711 449.962 157.711 449.962C157.711 449.962 173.471 449.486 183.133 439.464C192.796 429.442 192.59 413.643 192.59 413.643C192.59 413.643 176.932 414.144 167.244 424.167Z" fill="white"/>
</g>
<path d="M116.939 39.4975L100.291 54.0356L115.473 102.32L150.48 101.677L158.264 42.4437L133.395 35.6892L116.939 39.4975Z" fill="white"/>
<mask id="mask0_7388_31635" style="mask-type:luminance" maskUnits="userSpaceOnUse" x="100" y="35" width="59" height="68">
<path d="M116.939 39.4975L100.291 54.0356L115.473 102.32L150.48 101.677L158.264 42.4437L133.395 35.6892L116.939 39.4975Z" fill="white"/>
</mask>
<g mask="url(#mask0_7388_31635)">
<path opacity="0.5" d="M145.938 43.7174C142.979 43.0612 138.373 41.4144 138.373 41.4144C138.373 41.4144 119.615 41.0928 116.631 53.2637L115.653 58.2041L120.593 56.9175L114.328 66.4767C113.659 67.4802 113.041 58.2427 111.69 59.2333C110.339 60.224 107.47 72.7036 107.47 72.7036L109.374 82.9189L115.473 102.346L150.467 101.703L157.35 49.3911C155.498 48.2589 148.512 44.2835 145.938 43.7174Z" fill="#43916F"/>
</g>
<path d="M116.939 39.4975L100.291 54.0356L115.473 102.32L150.48 101.677L158.264 42.4437L133.395 35.6892L116.939 39.4975Z" stroke="#072B2C" stroke-width="0.829701" stroke-linecap="round" stroke-linejoin="round"/>
<path d="M120.117 49.6098L125.791 56.3643L124.337 96.8395L129.805 104.212L135.505 93.25L127.489 56.3643L132.134 48.5548L130.243 42.032L120.117 49.6098Z" fill="#072B2C" stroke="#072B2C" stroke-width="0.829701" stroke-linecap="round" stroke-linejoin="round"/>
<path d="M115.473 37.9665C114.604 40.7647 114.128 43.67 114.058 46.5993C114.248 49.9873 114.884 53.3355 115.949 56.5573C115.949 56.5573 120.22 51.0637 123.064 50.0216C125.907 48.9794 131.709 48.3362 133.614 49.1724C135.518 50.0087 140.149 53.0321 140.149 53.0321C140.303 48.575 139.586 44.1307 138.039 39.9478C135.466 33.6308 134.45 31.3021 132.752 30.6845C131.053 30.067 118.419 29.1535 115.473 37.9665Z" fill="white" stroke="#072B2C" stroke-width="0.829701" stroke-linecap="round" stroke-linejoin="round"/>
<path d="M100.292 54.0356L87.2716 87.3447C87.2716 87.3447 97.384 93.25 97.5641 92.6067C97.7442 91.9635 108.024 78.4545 108.024 78.4545L100.292 54.0356Z" fill="white"/>
<mask id="mask1_7388_31635" style="mask-type:luminance" maskUnits="userSpaceOnUse" x="87" y="54" width="22" height="39">
<path d="M100.292 54.0356L87.2716 87.3447C87.2716 87.3447 97.384 93.25 97.5641 92.6067C97.7442 91.9635 108.024 78.4545 108.024 78.4545L100.292 54.0356Z" fill="white"/>
</mask>
<g mask="url(#mask1_7388_31635)">
<path opacity="0.5" d="M103.187 72.0346C103.187 72.0346 94.7469 68.7667 96.934 70.748C99.1449 72.9286 101.232 75.2309 103.187 77.644L95.2872 81.6066L100.832 88.0394C103.894 83.9096 108.024 78.4931 108.024 78.4931L102.518 61.0345L102.196 61.1632L103.187 72.0346Z" fill="#43916F"/>
</g>
<path d="M100.292 54.0356L87.2716 87.3447C87.2716 87.3447 97.384 93.25 97.5641 92.6067C97.7442 91.9634 108.024 78.4545 108.024 78.4545L100.292 54.0356Z" stroke="#072B2C" stroke-width="0.829701" stroke-linecap="round" stroke-linejoin="round"/>
<path d="M158.264 42.4437L190.248 68.0591L177.794 75.4054L155.742 62.6813L158.264 42.4437Z" fill="white"/>
<mask id="mask2_7388_31635" style="mask-type:luminance" maskUnits="userSpaceOnUse" x="155" y="42" width="36" height="34">
<path d="M158.264 42.4437L190.248 68.0591L177.794 75.4054L155.742 62.6813L158.264 42.4437Z" fill="white"/>
</mask>
<g mask="url(#mask2_7388_31635)">
<path opacity="0.5" d="M179.556 71.7001L168.698 63.8006C168.698 63.8006 173.638 62.81 174.616 61.4977C175.594 60.1854 163.037 60.5199 163.037 60.5199L166.987 55.245L159.422 57.8181V54.576L157.337 49.4297L155.691 62.6556L177.742 75.3797L179.646 74.2475L179.556 71.7001Z" fill="#43916F"/>
</g>
<path d="M158.264 42.4437L190.248 68.0591L177.794 75.4054L155.742 62.6813L158.264 42.4437Z" stroke="#072B2C" stroke-width="0.829701" stroke-linecap="round" stroke-linejoin="round"/>
<path d="M115.473 37.9664C115.473 37.9664 118.214 45.3513 121.366 48.2589C124.518 51.1666 127.284 50.5747 129.381 47.8344C131.478 45.094 133.807 36.0237 134.45 35.5992C135.093 35.1746 137.396 33.026 137.396 30.9675C137.396 28.909 134.669 29.9126 134.231 30.7617L133.807 31.598L131.71 27.1722C130.737 29.6501 129.535 32.0319 128.12 34.2869C126.435 36.6156 126.01 38.3009 124.338 37.0401C122.665 35.7793 121.366 33.8752 120.066 35.9851C118.767 38.0951 115.473 37.9664 115.473 37.9664Z" fill="white" stroke="#072B2C" stroke-width="0.829701" stroke-linecap="round" stroke-linejoin="round"/>
<path opacity="0.5" d="M134.231 30.8517L133.806 31.688L131.709 27.2622C130.736 29.7401 129.534 32.122 128.12 34.3769C126.434 36.7056 126.01 38.391 124.337 37.1302C122.664 35.8693 121.365 33.9652 120.066 36.0752C118.766 38.1851 115.421 37.9664 115.421 37.9664C115.421 37.9664 116.064 39.7033 117.081 41.8261C122.523 42.1092 131.323 41.5945 133.343 35.6506V38.1465C133.55 37.2668 133.893 36.4247 134.359 35.6506C134.977 35.2389 137.306 33.0775 137.306 31.0061C137.306 28.9348 134.668 30.0026 134.231 30.8517Z" fill="#43916F"/>
<path d="M117.879 40.4366C117.879 40.4366 120.825 41.7232 121.88 40.8869C121.88 40.8869 122.099 46.7537 123.566 46.2262L125.431 44.9396" stroke="#072B2C" stroke-width="0.553134" stroke-linecap="round" stroke-linejoin="round"/>
<path d="M126.242 40.6168C126.242 40.6168 127.785 41.9033 130.191 39.7805" stroke="#072B2C" stroke-width="0.553134" stroke-linecap="round" stroke-linejoin="round"/>
<path d="M125.174 39.5489C125.174 39.5489 125.174 36.3454 130.243 36.6155" stroke="#072B2C" stroke-width="0.553134" stroke-linecap="round" stroke-linejoin="round"/>
<path d="M121.88 40.8869C121.674 40.0602 121.253 39.303 120.658 38.6926C120.064 38.0823 119.318 37.6408 118.497 37.4132" stroke="#072B2C" stroke-width="0.553134" stroke-linecap="round" stroke-linejoin="round"/>
<path d="M122.497 47.2812C123.308 47.644 124.213 47.7361 125.08 47.5438C125.947 47.3514 126.728 46.8849 127.309 46.2133" stroke="#072B2C" stroke-width="0.553134" stroke-linecap="round" stroke-linejoin="round"/>
<path d="M136.341 31.0576C136.341 31.0576 142.169 24.9336 138.979 17.8961C136.882 13.2773 136.56 13.4574 131.491 8.07962C126.422 2.70179 116.052 5.63514 112.579 9.36617C109.105 13.0972 111.511 19.7616 110.173 20.5593C108.835 21.3569 100.832 23.7628 101.167 26.9921C101.501 30.2213 110.173 31.791 109.169 32.8588C108.166 33.9266 101.167 33.6565 104.37 36.3325C107.574 39.0086 116.811 40.3595 124.402 37.1945C131.993 34.0296 131.517 29.3851 131.517 29.3851C131.517 29.3851 132.392 34.6085 136.341 31.0576Z" fill="#072B2C" stroke="#072B2C" stroke-width="0.829701" stroke-linecap="round" stroke-linejoin="round"/>
<path d="M117.698 36.5899C117.698 36.5899 122.201 37.3875 127.476 33.1547C132.751 28.9219 129.059 23.1967 129.059 23.1967" stroke="white" stroke-width="0.553134" stroke-linecap="round" stroke-linejoin="round"/>
<path d="M132.482 18.8996C132.482 18.8996 135.338 28.1243 132.752 30.6459" stroke="white" stroke-width="0.553134" stroke-linecap="round" stroke-linejoin="round"/>
<path d="M109.105 32.8202C109.105 32.8202 117.648 34.7243 121.906 29.9769" stroke="white" stroke-width="0.553134" stroke-linecap="round" stroke-linejoin="round"/>
<path d="M89.7419 91.7962C89.7419 91.7962 83.309 90.381 84.4026 86.8172C85.4962 83.2534 84.4026 79.3423 92.2378 80.0499C100.073 80.7575 103.264 82.5458 103.264 86.1096C103.264 89.6734 102.196 95.7073 97.9244 93.9319C95.3075 92.8489 92.5543 92.1302 89.7419 91.7962Z" fill="white" stroke="#072B2C" stroke-width="0.829701" stroke-linecap="round" stroke-linejoin="round"/>
<path d="M164.697 56.8274L155.742 62.6813L171.374 59.0532" stroke="#072B2C" stroke-width="0.553134" stroke-linecap="round" stroke-linejoin="round"/>
<path d="M107.033 76.3832L99.9443 69.603" stroke="#072B2C" stroke-width="0.553134" stroke-linecap="round" stroke-linejoin="round"/>
<path d="M103.856 75.161L99.1213 72.6522" stroke="#072B2C" stroke-width="0.553134" stroke-linecap="round" stroke-linejoin="round"/>
<path d="M149.696 66.5539L141.359 66.8241V69.32H149.142" stroke="#072B2C" stroke-width="0.553134" stroke-linecap="round" stroke-linejoin="round"/>
<path opacity="0.5" d="M88.3652 89.1459C88.3652 89.1459 84.4283 87.126 86.0622 85.8523C88.6154 84.2843 91.6519 83.699 94.605 84.2055C96.3194 84.6708 97.9732 85.3358 99.5325 86.1868C99.5325 86.1868 95.274 82.8932 97.8857 82.8932C100.497 82.8932 102.157 86.1868 101.179 89.4804C100.202 92.774 96.2389 91.7834 96.2389 91.7834L88.3652 89.1459Z" fill="#43916F"/>
<path d="M278.828 424.565V378.404H204.541V424.565C204.553 432.475 201.43 440.066 195.857 445.678L178.926 462.764H304.443L287.525 445.678C281.942 440.071 278.814 432.478 278.828 424.565Z" fill="white" stroke="#072B2C" stroke-width="1.10627" stroke-linecap="round" stroke-linejoin="round"/>
<path opacity="0.44" d="M204.542 378.404V424.565C204.539 428.143 203.889 431.691 202.625 435.038H280.745C279.487 431.689 278.838 428.143 278.828 424.565V378.404H204.542Z" fill="#43916F"/>
<path d="M278.828 380.488H204.542V414.736H278.828V380.488Z" fill="#072B2C" stroke="#072B2C" stroke-width="1.10627" stroke-miterlimit="10"/>
<path d="M304.43 462.763H178.926V465.208H304.43V462.763Z" fill="white" stroke="#072B2C" stroke-width="1.10627" stroke-linecap="round" stroke-linejoin="round"/>
<path d="M61.5275 95.8617H421.855C424.145 95.86 426.413 96.3103 428.529 97.1868C430.645 98.0632 432.567 99.3486 434.186 100.969C435.804 102.59 437.087 104.514 437.96 106.631C438.833 108.748 439.28 111.017 439.275 113.308V382.302C439.258 387.312 437.252 392.111 433.699 395.643C430.145 399.175 425.334 401.151 420.324 401.137H63.0714C58.0623 401.137 53.2584 399.147 49.7165 395.605C46.1745 392.063 44.1847 387.26 44.1847 382.25V113.243C44.1915 108.642 46.0196 104.231 49.2694 100.974C52.5193 97.7167 56.9265 95.8787 61.5275 95.8617Z" fill="#072B2C" stroke="#072B2C" stroke-width="1.10627" stroke-miterlimit="10"/>
<path d="M44.1204 365.808H439.275V382.25C439.275 387.26 437.285 392.063 433.743 395.605C430.201 399.147 425.397 401.137 420.388 401.137H63.0714C58.0623 401.137 53.2584 399.147 49.7165 395.605C46.1745 392.063 44.1847 387.26 44.1847 382.25V365.808H44.1204Z" fill="white" stroke="#072B2C" stroke-width="1.10627" stroke-miterlimit="10"/>
<path d="M454.816 115.134H101.539V350.64H454.816V115.134Z" fill="white" stroke="#072B2C" stroke-width="0.829701" stroke-linecap="round" stroke-linejoin="round"/>
<path d="M454.816 115.134H101.539V191.453H454.816V115.134Z" fill="#43916F"/>
<path d="M137.537 334.776H123.308V210.366H137.537V334.776ZM165.43 210.289H151.278V334.776H165.507L165.43 210.289ZM193.335 210.289H179.093V334.776H193.335V210.289ZM221.215 210.289H206.986V334.776H221.215V210.289ZM249.108 210.289H234.879V334.776H249.108V210.289ZM276.988 210.289H262.758V334.776H276.988V210.289ZM304.893 210.289H290.651V334.776H304.893V210.289ZM332.786 210.289H318.557V334.776H332.786V210.289ZM360.666 210.289H346.436V334.776H360.666V210.289ZM388.558 210.289H374.329V334.776H388.558V210.289Z" fill="#43916F"/>
<path opacity="0.4" d="M137.537 334.776H123.308V210.366H137.537V334.776ZM165.43 210.289H151.278V334.776H165.507L165.43 210.289ZM193.335 210.289H179.093V334.776H193.335V210.289ZM221.215 210.289H206.986V334.776H221.215V210.289ZM249.108 210.289H234.879V334.776H249.108V210.289ZM276.988 210.289H262.758V334.776H276.988V210.289ZM304.893 210.289H290.651V334.776H304.893V210.289ZM332.786 210.289H318.557V334.776H332.786V210.289ZM360.666 210.289H346.436V334.776H360.666V210.289ZM388.558 210.289H374.329V334.776H388.558V210.289Z" fill="white"/>
<path d="M211.734 143.709H118.188C117.359 143.709 116.564 143.38 115.977 142.793C115.391 142.207 115.062 141.412 115.062 140.583C115.065 139.756 115.396 138.964 115.982 138.38C116.568 137.797 117.361 137.469 118.188 137.469H211.734C212.56 137.469 213.352 137.797 213.936 138.381C214.519 138.965 214.848 139.757 214.848 140.583C214.849 140.993 214.77 141.399 214.614 141.778C214.458 142.157 214.229 142.502 213.94 142.793C213.651 143.083 213.307 143.313 212.928 143.471C212.55 143.628 212.144 143.709 211.734 143.709Z" fill="white" stroke="#072B2C" stroke-width="0.829701" stroke-linecap="round" stroke-linejoin="round"/>
<path d="M183.43 143.709H118.188C117.359 143.709 116.564 143.38 115.977 142.793C115.391 142.207 115.062 141.412 115.062 140.583C115.065 139.756 115.396 138.964 115.982 138.38C116.568 137.797 117.361 137.469 118.188 137.469H183.43V143.709Z" fill="#072B2C" stroke="#072B2C" stroke-width="1.10627" stroke-linecap="round" stroke-linejoin="round"/>
<path d="M211.734 155.944H118.188C117.778 155.946 117.372 155.867 116.993 155.711C116.613 155.555 116.269 155.326 115.978 155.037C115.688 154.748 115.457 154.404 115.3 154.025C115.143 153.647 115.062 153.241 115.062 152.831C115.062 152.421 115.143 152.015 115.3 151.636C115.457 151.258 115.688 150.914 115.978 150.625C116.269 150.335 116.613 150.106 116.993 149.951C117.372 149.795 117.778 149.716 118.188 149.717H211.734C212.56 149.717 213.352 150.045 213.936 150.629C214.519 151.213 214.848 152.005 214.848 152.831C214.848 153.656 214.519 154.448 213.936 155.032C213.352 155.616 212.56 155.944 211.734 155.944Z" fill="white" stroke="#072B2C" stroke-width="0.829701" stroke-linecap="round" stroke-linejoin="round"/>
<path d="M195.433 155.944H118.239C117.829 155.946 117.423 155.867 117.043 155.711C116.664 155.555 116.319 155.326 116.029 155.037C115.739 154.748 115.508 154.404 115.351 154.025C115.194 153.647 115.113 153.241 115.113 152.831C115.113 152.421 115.194 152.015 115.351 151.636C115.508 151.258 115.739 150.914 116.029 150.625C116.319 150.335 116.664 150.106 117.043 149.951C117.423 149.795 117.829 149.716 118.239 149.717H195.433V155.944Z" fill="#072B2C" stroke="#072B2C" stroke-width="1.10627" stroke-linecap="round" stroke-linejoin="round"/>
<path d="M211.734 168.257H118.188C117.778 168.258 117.372 168.179 116.993 168.023C116.613 167.868 116.269 167.639 115.978 167.349C115.688 167.06 115.457 166.716 115.3 166.338C115.143 165.959 115.062 165.553 115.062 165.143C115.062 164.314 115.391 163.519 115.977 162.932C116.564 162.346 117.359 162.017 118.188 162.017H211.734C212.144 162.017 212.55 162.098 212.928 162.255C213.307 162.412 213.651 162.643 213.94 162.933C214.229 163.224 214.458 163.568 214.614 163.948C214.77 164.327 214.849 164.733 214.848 165.143C214.848 165.969 214.519 166.761 213.936 167.345C213.352 167.929 212.56 168.257 211.734 168.257Z" fill="white" stroke="#072B2C" stroke-width="0.829701" stroke-linecap="round" stroke-linejoin="round"/>
<path d="M166.743 168.257H118.188C117.778 168.258 117.372 168.179 116.993 168.023C116.613 167.868 116.269 167.639 115.978 167.349C115.688 167.06 115.457 166.716 115.3 166.338C115.143 165.959 115.062 165.553 115.062 165.143C115.062 164.314 115.391 163.519 115.977 162.932C116.564 162.346 117.359 162.017 118.188 162.017H166.743V168.257Z" fill="#072B2C" stroke="#072B2C" stroke-width="1.10627" stroke-linecap="round" stroke-linejoin="round"/>
<path d="M211.734 180.427H118.188C117.361 180.427 116.568 180.1 115.982 179.516C115.396 178.933 115.065 178.141 115.062 177.314C115.065 176.485 115.395 175.69 115.98 175.102C116.566 174.515 117.359 174.182 118.188 174.175H211.734C212.562 174.182 213.354 174.515 213.937 175.103C214.52 175.691 214.848 176.486 214.848 177.314C214.848 178.14 214.519 178.932 213.936 179.516C213.352 180.099 212.56 180.427 211.734 180.427Z" fill="white" stroke="#072B2C" stroke-width="0.829701" stroke-linecap="round" stroke-linejoin="round"/>
<path d="M208.363 180.427H118.188C117.361 180.427 116.568 180.1 115.982 179.516C115.396 178.933 115.065 178.141 115.062 177.314C115.065 176.485 115.395 175.69 115.98 175.102C116.566 174.515 117.359 174.182 118.188 174.175H208.363V180.427Z" fill="#072B2C" stroke="#072B2C" stroke-width="1.10627" stroke-linecap="round" stroke-linejoin="round"/>
<path d="M115.743 334.815H396.072" stroke="#072B2C" stroke-width="0.829701" stroke-linecap="round" stroke-linejoin="round"/>
<path d="M143.778 334.815V331.997" stroke="#072B2C" stroke-width="0.829701" stroke-linecap="round" stroke-linejoin="round"/>
<path d="M171.812 334.815V331.997" stroke="#072B2C" stroke-width="0.829701" stroke-linecap="round" stroke-linejoin="round"/>
<path d="M199.846 334.815V331.997" stroke="#072B2C" stroke-width="0.829701" stroke-linecap="round" stroke-linejoin="round"/>
<path d="M227.88 334.815V331.997" stroke="#072B2C" stroke-width="0.829701" stroke-linecap="round" stroke-linejoin="round"/>
<path d="M255.914 334.815V331.997" stroke="#072B2C" stroke-width="0.829701" stroke-linecap="round" stroke-linejoin="round"/>
<path d="M283.948 334.815V331.997" stroke="#072B2C" stroke-width="0.829701" stroke-linecap="round" stroke-linejoin="round"/>
<path d="M311.983 334.815V331.997" stroke="#072B2C" stroke-width="0.829701" stroke-linecap="round" stroke-linejoin="round"/>
<path d="M340.017 334.815V331.997" stroke="#072B2C" stroke-width="0.829701" stroke-linecap="round" stroke-linejoin="round"/>
<path d="M368.051 334.815V331.997" stroke="#072B2C" stroke-width="0.829701" stroke-linecap="round" stroke-linejoin="round"/>
<path d="M396.073 334.815V331.997" stroke="#072B2C" stroke-width="0.829701" stroke-linecap="round" stroke-linejoin="round"/>
<path d="M115.743 334.815V323.699V210.726" stroke="#072B2C" stroke-width="0.829701" stroke-linecap="round" stroke-linejoin="round"/>
<path d="M115.743 323.699H122.755" stroke="#072B2C" stroke-width="0.829701" stroke-linecap="round" stroke-linejoin="round"/>
<path d="M115.743 304.864H122.755" stroke="#072B2C" stroke-width="0.829701" stroke-linecap="round" stroke-linejoin="round"/>
<path d="M115.743 286.028H122.755" stroke="#072B2C" stroke-width="0.829701" stroke-linecap="round" stroke-linejoin="round"/>
<path d="M115.743 267.219H122.755" stroke="#072B2C" stroke-width="0.829701" stroke-linecap="round" stroke-linejoin="round"/>
<path d="M115.743 248.384H122.755" stroke="#072B2C" stroke-width="0.829701" stroke-linecap="round" stroke-linejoin="round"/>
<path d="M115.743 229.561H122.755" stroke="#072B2C" stroke-width="0.829701" stroke-linecap="round" stroke-linejoin="round"/>
<path d="M115.743 210.726H122.755" stroke="#072B2C" stroke-width="0.829701" stroke-linecap="round" stroke-linejoin="round"/>
<path d="M446.942 135.14H401.218V182.229H446.942V135.14Z" fill="white" stroke="#072B2C" stroke-width="0.829701" stroke-linecap="round" stroke-linejoin="round"/>
<path d="M446.942 135.14H401.218V143.22H446.942V135.14Z" fill="#072B2C" stroke="#072B2C" stroke-width="1.00786" stroke-linecap="round" stroke-linejoin="round"/>
<path d="M405.413 149.807V176.555" stroke="#072B2C" stroke-width="0.829701" stroke-linecap="round" stroke-linejoin="round"/>
<path d="M411.588 149.807V176.555" stroke="#072B2C" stroke-width="0.829701" stroke-linecap="round" stroke-linejoin="round"/>
<path d="M417.751 149.807V176.555" stroke="#072B2C" stroke-width="0.829701" stroke-linecap="round" stroke-linejoin="round"/>
<path d="M423.926 149.807V176.555" stroke="#072B2C" stroke-width="0.829701" stroke-linecap="round" stroke-linejoin="round"/>
<path d="M430.115 149.807V176.555" stroke="#072B2C" stroke-width="0.829701" stroke-linecap="round" stroke-linejoin="round"/>
<path d="M436.29 149.807V176.555" stroke="#072B2C" stroke-width="0.829701" stroke-linecap="round" stroke-linejoin="round"/>
<path d="M442.466 149.807V176.555" stroke="#072B2C" stroke-width="0.829701" stroke-linecap="round" stroke-linejoin="round"/>
<path d="M442.054 153.307H405.619" stroke="#072B2C" stroke-width="0.829701" stroke-linecap="round" stroke-linejoin="round"/>
<path d="M442.054 158.247H405.619" stroke="#072B2C" stroke-width="0.829701" stroke-linecap="round" stroke-linejoin="round"/>
<path d="M442.054 163.188H405.619" stroke="#072B2C" stroke-width="0.829701" stroke-linecap="round" stroke-linejoin="round"/>
<path d="M442.054 168.128H405.619" stroke="#072B2C" stroke-width="0.829701" stroke-linecap="round" stroke-linejoin="round"/>
<path d="M442.054 173.068H405.619" stroke="#072B2C" stroke-width="0.829701" stroke-linecap="round" stroke-linejoin="round"/>
<path d="M157.788 278.335L129.767 334.815" stroke="#072B2C" stroke-width="2.21254" stroke-linecap="round" stroke-linejoin="round"/>
<path d="M185.835 315.98L157.788 278.335" stroke="#072B2C" stroke-width="2.21254" stroke-linecap="round" stroke-linejoin="round"/>
<path d="M213.87 285.861L185.835 315.98" stroke="#072B2C" stroke-width="2.21254" stroke-linecap="round" stroke-linejoin="round"/>
<path d="M241.891 221.855L213.869 285.861" stroke="#072B2C" stroke-width="2.21254" stroke-linecap="round" stroke-linejoin="round"/>
<path d="M269.938 240.677L241.891 221.855" stroke="#072B2C" stroke-width="2.21254" stroke-linecap="round" stroke-linejoin="round"/>
<path d="M297.959 306.575L269.938 240.677" stroke="#072B2C" stroke-width="2.21254" stroke-linecap="round" stroke-linejoin="round"/>
<path d="M325.993 300.927L297.959 306.575" stroke="#072B2C" stroke-width="2.21254" stroke-linecap="round" stroke-linejoin="round"/>
<path d="M354.04 293.388L325.993 300.927" stroke="#072B2C" stroke-width="2.21254" stroke-linecap="round" stroke-linejoin="round"/>
<path d="M382.062 259.5L354.04 293.388" stroke="#072B2C" stroke-width="2.21254" stroke-linecap="round" stroke-linejoin="round"/>
<path d="M129.767 331.933C130.545 331.933 131.291 332.242 131.841 332.792C132.391 333.342 132.7 334.088 132.7 334.866C132.7 335.646 132.392 336.393 131.842 336.945C131.292 337.497 130.546 337.809 129.767 337.813C128.987 337.809 128.239 337.498 127.687 336.946C127.136 336.394 126.824 335.647 126.821 334.866C126.824 334.087 127.136 333.341 127.688 332.791C128.24 332.242 128.988 331.933 129.767 331.933Z" fill="white" stroke="#072B2C" stroke-width="0.829701" stroke-linecap="round" stroke-linejoin="round"/>
<path d="M157.788 275.401C158.567 275.401 159.315 275.71 159.867 276.26C160.419 276.81 160.731 277.556 160.734 278.335C160.731 279.114 160.419 279.86 159.867 280.41C159.315 280.96 158.567 281.268 157.788 281.268C157.01 281.268 156.264 280.959 155.714 280.409C155.164 279.859 154.855 279.113 154.855 278.335C154.855 277.557 155.164 276.811 155.714 276.261C156.264 275.711 157.01 275.401 157.788 275.401Z" fill="white" stroke="#072B2C" stroke-width="0.829701" stroke-linecap="round" stroke-linejoin="round"/>
<path d="M185.822 313.046C186.6 313.046 187.346 313.355 187.896 313.905C188.447 314.456 188.756 315.202 188.756 315.98C188.756 316.759 188.447 317.506 187.897 318.058C187.348 318.611 186.601 318.922 185.822 318.926C185.043 318.922 184.297 318.611 183.747 318.058C183.198 317.506 182.889 316.759 182.889 315.98C182.889 315.202 183.198 314.456 183.748 313.905C184.298 313.355 185.044 313.046 185.822 313.046Z" fill="white" stroke="#072B2C" stroke-width="0.829701" stroke-linecap="round" stroke-linejoin="round"/>
<path d="M213.947 282.928C214.722 282.931 215.465 283.242 216.012 283.792C216.56 284.341 216.867 285.085 216.867 285.861C216.867 286.637 216.56 287.381 216.012 287.931C215.465 288.481 214.722 288.791 213.947 288.795C213.167 288.795 212.42 288.486 211.868 287.936C211.316 287.386 211.004 286.64 211 285.861C211.004 285.082 211.316 284.336 211.868 283.786C212.42 283.237 213.167 282.928 213.947 282.928Z" fill="white" stroke="#072B2C" stroke-width="0.829701" stroke-linecap="round" stroke-linejoin="round"/>
<path d="M241.891 218.909C242.672 218.909 243.422 219.219 243.974 219.771C244.527 220.324 244.837 221.073 244.837 221.855C244.834 222.634 244.522 223.38 243.97 223.93C243.417 224.479 242.67 224.788 241.891 224.788C241.506 224.788 241.124 224.712 240.768 224.565C240.412 224.417 240.089 224.201 239.817 223.929C239.544 223.657 239.328 223.333 239.181 222.977C239.033 222.621 238.957 222.24 238.957 221.855C238.957 221.076 239.266 220.328 239.816 219.776C240.366 219.224 241.112 218.912 241.891 218.909Z" fill="white" stroke="#072B2C" stroke-width="0.829701" stroke-linecap="round" stroke-linejoin="round"/>
<path d="M269.938 237.744C270.714 237.747 271.459 238.057 272.008 238.607C272.557 239.156 272.867 239.9 272.871 240.677C272.871 241.456 272.562 242.204 272.012 242.756C271.463 243.308 270.717 243.62 269.938 243.623C269.158 243.62 268.412 243.308 267.863 242.756C267.313 242.204 267.004 241.456 267.004 240.677C267.004 239.899 267.313 239.153 267.863 238.603C268.413 238.053 269.16 237.744 269.938 237.744Z" fill="white" stroke="#072B2C" stroke-width="0.829701" stroke-linecap="round" stroke-linejoin="round"/>
<path d="M297.921 303.642C298.7 303.642 299.448 303.95 300 304.5C300.552 305.05 300.864 305.796 300.867 306.575C300.864 307.354 300.552 308.1 300 308.65C299.448 309.2 298.7 309.508 297.921 309.508C297.143 309.508 296.397 309.199 295.847 308.649C295.297 308.099 294.988 307.353 294.988 306.575C294.988 305.797 295.297 305.051 295.847 304.501C296.397 303.951 297.143 303.642 297.921 303.642Z" fill="white" stroke="#072B2C" stroke-width="0.829701" stroke-linecap="round" stroke-linejoin="round"/>
<path d="M326.058 297.993C326.836 297.993 327.582 298.303 328.132 298.853C328.682 299.403 328.991 300.149 328.991 300.927C328.991 301.706 328.682 302.453 328.133 303.006C327.583 303.558 326.837 303.87 326.058 303.873C325.278 303.87 324.532 303.558 323.983 303.006C323.433 302.453 323.124 301.706 323.124 300.927C323.124 300.149 323.433 299.403 323.983 298.853C324.534 298.303 325.28 297.993 326.058 297.993Z" fill="white" stroke="#072B2C" stroke-width="0.829701" stroke-linecap="round" stroke-linejoin="round"/>
<path d="M354.04 290.454C354.816 290.458 355.559 290.768 356.106 291.318C356.654 291.868 356.961 292.612 356.961 293.388C356.961 294.163 356.654 294.907 356.106 295.457C355.559 296.007 354.816 296.318 354.04 296.321C353.261 296.321 352.514 296.012 351.962 295.463C351.41 294.913 351.098 294.167 351.094 293.388C351.098 292.608 351.41 291.862 351.962 291.313C352.514 290.763 353.261 290.454 354.04 290.454Z" fill="white" stroke="#072B2C" stroke-width="0.829701" stroke-linecap="round" stroke-linejoin="round"/>
<path d="M382.061 256.566C382.841 256.566 383.588 256.875 384.14 257.425C384.692 257.974 385.004 258.72 385.008 259.5C385.004 260.279 384.692 261.025 384.14 261.575C383.588 262.124 382.841 262.433 382.061 262.433C381.283 262.433 380.537 262.124 379.987 261.574C379.437 261.024 379.128 260.278 379.128 259.5C379.128 258.722 379.437 257.975 379.987 257.425C380.537 256.875 381.283 256.566 382.061 256.566Z" fill="white" stroke="#072B2C" stroke-width="0.829701" stroke-linecap="round" stroke-linejoin="round"/>
<path d="M165.739 265.251H150.429C149.405 265.251 148.424 264.844 147.7 264.12C146.976 263.396 146.569 262.414 146.569 261.391C146.569 260.378 146.967 259.406 147.677 258.684C148.387 257.962 149.352 257.548 150.365 257.531H165.688C166.711 257.531 167.693 257.938 168.417 258.662C169.141 259.385 169.547 260.367 169.547 261.391C169.547 262.414 169.141 263.396 168.417 264.12C167.693 264.844 166.711 265.251 165.688 265.251H165.739Z" fill="white" stroke="#072B2C" stroke-width="0.829701" stroke-linecap="round" stroke-linejoin="round"/>
<path d="M157.788 275.401V265.624" stroke="#072B2C" stroke-width="0.829701" stroke-linecap="round" stroke-linejoin="round"/>
<path d="M249.52 208.873H234.171C233.148 208.873 232.166 208.467 231.442 207.743C230.718 207.019 230.312 206.037 230.312 205.014C230.312 203.99 230.718 203.008 231.442 202.284C232.166 201.561 233.148 201.154 234.171 201.154H249.61C250.634 201.154 251.615 201.561 252.339 202.284C253.063 203.008 253.47 203.99 253.47 205.014C253.47 205.528 253.367 206.038 253.168 206.512C252.968 206.986 252.676 207.416 252.308 207.775C251.94 208.135 251.503 208.417 251.025 208.606C250.546 208.794 250.034 208.885 249.52 208.873Z" fill="white" stroke="#072B2C" stroke-width="0.829701" stroke-linecap="round" stroke-linejoin="round"/>
<path d="M241.531 219.024V209.246" stroke="#072B2C" stroke-width="0.829701" stroke-linecap="round" stroke-linejoin="round"/>
<path d="M389.369 245.952H374.072C373.048 245.952 372.067 245.545 371.343 244.822C370.619 244.098 370.212 243.116 370.212 242.092C370.212 241.069 370.619 240.087 371.343 239.363C372.067 238.639 373.048 238.233 374.072 238.233H389.369C390.371 238.232 391.334 238.621 392.054 239.317C392.774 240.014 393.195 240.963 393.229 241.964V242.054C393.229 243.077 392.822 244.059 392.098 244.783C391.375 245.507 390.393 245.913 389.369 245.913V245.952Z" fill="white" stroke="#072B2C" stroke-width="0.829701" stroke-linecap="round" stroke-linejoin="round"/>
<path d="M381.431 256.103V246.325" stroke="#072B2C" stroke-width="0.829701" stroke-linecap="round" stroke-linejoin="round"/>
<path d="M253.611 135.14C249.237 135.14 244.961 136.438 241.324 138.868C237.687 141.298 234.853 144.752 233.179 148.793C231.505 152.834 231.067 157.281 231.92 161.571C232.774 165.861 234.88 169.802 237.973 172.895C241.066 175.988 245.007 178.094 249.297 178.948C253.587 179.801 258.033 179.363 262.075 177.689C266.116 176.015 269.57 173.18 272 169.543C274.43 165.907 275.727 161.631 275.727 157.256C275.724 151.392 273.393 145.769 269.246 141.622C265.099 137.475 259.476 135.144 253.611 135.14ZM253.611 172.862C250.514 172.862 247.486 171.944 244.911 170.223C242.336 168.502 240.329 166.056 239.144 163.194C237.96 160.332 237.65 157.183 238.256 154.146C238.861 151.108 240.353 148.318 242.544 146.129C244.735 143.94 247.526 142.45 250.565 141.847C253.603 141.244 256.751 141.556 259.612 142.743C262.473 143.93 264.917 145.939 266.636 148.516C268.355 151.092 269.271 154.121 269.269 157.218C269.269 159.273 268.864 161.309 268.077 163.208C267.29 165.107 266.136 166.832 264.682 168.285C263.228 169.738 261.502 170.89 259.602 171.675C257.703 172.461 255.667 172.864 253.611 172.862Z" fill="white" stroke="#072B2C" stroke-width="0.829701" stroke-linecap="round" stroke-linejoin="round"/>
<path d="M253.611 135.14C250.627 135.129 247.673 135.728 244.929 136.9C242.186 138.073 239.711 139.795 237.657 141.959L242.341 146.449C243.79 144.918 245.538 143.7 247.476 142.87C249.415 142.041 251.502 141.617 253.611 141.625C257.763 141.625 261.746 143.274 264.682 146.211C267.619 149.147 269.268 153.13 269.268 157.282C269.268 161.435 267.619 165.417 264.682 168.354C261.746 171.29 257.763 172.94 253.611 172.94V179.372C259.475 179.521 265.157 177.334 269.409 173.292C273.66 169.251 276.132 163.686 276.28 157.823C276.428 151.959 274.241 146.276 270.2 142.025C266.159 137.773 260.594 135.302 254.73 135.153H253.611V135.14Z" fill="#072B2C" stroke="#072B2C" stroke-width="1.00786" stroke-linecap="round" stroke-linejoin="round"/>
<path d="M247.461 156.086H259.774" stroke="#072B2C" stroke-width="0.829701" stroke-linecap="round" stroke-linejoin="round"/>
<path d="M247.461 158.427H259.774" stroke="#072B2C" stroke-width="0.829701" stroke-linecap="round" stroke-linejoin="round"/>
<path d="M116.798 130.573H129.111" stroke="#072B2C" stroke-width="0.829701" stroke-linecap="round" stroke-linejoin="round"/>
<path d="M116.798 132.902H129.111" stroke="#072B2C" stroke-width="0.829701" stroke-linecap="round" stroke-linejoin="round"/>
<path d="M132.019 130.573H144.331" stroke="#072B2C" stroke-width="0.829701" stroke-linecap="round" stroke-linejoin="round"/>
<path d="M132.019 132.902H144.331" stroke="#072B2C" stroke-width="0.829701" stroke-linecap="round" stroke-linejoin="round"/>
<path d="M147.212 130.573H159.525" stroke="#072B2C" stroke-width="0.829701" stroke-linecap="round" stroke-linejoin="round"/>
<path d="M147.212 132.902H159.525" stroke="#072B2C" stroke-width="0.829701" stroke-linecap="round" stroke-linejoin="round"/>
<path d="M116.798 199.044H129.111" stroke="#072B2C" stroke-width="0.829701" stroke-linecap="round" stroke-linejoin="round"/>
<path d="M116.798 201.36H129.111" stroke="#072B2C" stroke-width="0.829701" stroke-linecap="round" stroke-linejoin="round"/>
<path d="M132.019 199.044H144.331" stroke="#072B2C" stroke-width="0.829701" stroke-linecap="round" stroke-linejoin="round"/>
<path d="M132.019 201.36H144.331" stroke="#072B2C" stroke-width="0.829701" stroke-linecap="round" stroke-linejoin="round"/>
<path d="M147.212 199.044H159.525" stroke="#072B2C" stroke-width="0.829701" stroke-linecap="round" stroke-linejoin="round"/>
<path d="M147.212 201.36H159.525" stroke="#072B2C" stroke-width="0.829701" stroke-linecap="round" stroke-linejoin="round"/>
<path d="M404.203 210.816H416.516" stroke="#072B2C" stroke-width="0.829701" stroke-linecap="round" stroke-linejoin="round"/>
<path d="M419.423 210.816H431.736" stroke="#072B2C" stroke-width="0.829701" stroke-linecap="round" stroke-linejoin="round"/>
<path d="M434.617 210.816H446.93" stroke="#072B2C" stroke-width="0.829701" stroke-linecap="round" stroke-linejoin="round"/>
<path d="M404.203 213.672H416.516" stroke="#072B2C" stroke-width="0.829701" stroke-linecap="round" stroke-linejoin="round"/>
<path d="M419.423 213.672H431.736" stroke="#072B2C" stroke-width="0.829701" stroke-linecap="round" stroke-linejoin="round"/>
<path d="M434.617 213.672H446.93" stroke="#072B2C" stroke-width="0.829701" stroke-linecap="round" stroke-linejoin="round"/>
<path d="M404.203 216.554H416.516" stroke="#072B2C" stroke-width="0.829701" stroke-linecap="round" stroke-linejoin="round"/>
<path d="M419.423 216.554H431.736" stroke="#072B2C" stroke-width="0.829701" stroke-linecap="round" stroke-linejoin="round"/>
<path d="M434.617 216.554H446.93" stroke="#072B2C" stroke-width="0.829701" stroke-linecap="round" stroke-linejoin="round"/>
<path d="M404.203 219.41H416.516" stroke="#072B2C" stroke-width="0.829701" stroke-linecap="round" stroke-linejoin="round"/>
<path d="M419.423 219.41H431.736" stroke="#072B2C" stroke-width="0.829701" stroke-linecap="round" stroke-linejoin="round"/>
<path d="M434.617 219.41H446.93" stroke="#072B2C" stroke-width="0.829701" stroke-linecap="round" stroke-linejoin="round"/>
<path d="M404.203 222.279H416.516" stroke="#072B2C" stroke-width="0.829701" stroke-linecap="round" stroke-linejoin="round"/>
<path d="M419.423 222.279H431.736" stroke="#072B2C" stroke-width="0.829701" stroke-linecap="round" stroke-linejoin="round"/>
<path d="M434.617 222.279H446.93" stroke="#072B2C" stroke-width="0.829701" stroke-linecap="round" stroke-linejoin="round"/>
<path d="M404.203 225.161H416.516" stroke="#072B2C" stroke-width="0.829701" stroke-linecap="round" stroke-linejoin="round"/>
<path d="M419.423 225.161H431.736" stroke="#072B2C" stroke-width="0.829701" stroke-linecap="round" stroke-linejoin="round"/>
<path d="M434.617 225.161H446.93" stroke="#072B2C" stroke-width="0.829701" stroke-linecap="round" stroke-linejoin="round"/>
<path d="M404.203 228.017H416.516" stroke="#072B2C" stroke-width="0.829701" stroke-linecap="round" stroke-linejoin="round"/>
<path d="M419.423 228.017H431.736" stroke="#072B2C" stroke-width="0.829701" stroke-linecap="round" stroke-linejoin="round"/>
<path d="M434.617 228.017H446.93" stroke="#072B2C" stroke-width="0.829701" stroke-linecap="round" stroke-linejoin="round"/>
<path d="M404.203 230.899H416.516" stroke="#072B2C" stroke-width="0.829701" stroke-linecap="round" stroke-linejoin="round"/>
<path d="M419.423 230.899H431.736" stroke="#072B2C" stroke-width="0.829701" stroke-linecap="round" stroke-linejoin="round"/>
<path d="M434.617 230.899H446.93" stroke="#072B2C" stroke-width="0.829701" stroke-linecap="round" stroke-linejoin="round"/>
<path d="M404.203 233.755H416.516" stroke="#072B2C" stroke-width="0.829701" stroke-linecap="round" stroke-linejoin="round"/>
<path d="M419.423 233.755H431.736" stroke="#072B2C" stroke-width="0.829701" stroke-linecap="round" stroke-linejoin="round"/>
<path d="M434.617 233.755H446.93" stroke="#072B2C" stroke-width="0.829701" stroke-linecap="round" stroke-linejoin="round"/>
<path d="M404.203 236.637H416.516" stroke="#072B2C" stroke-width="0.829701" stroke-linecap="round" stroke-linejoin="round"/>
<path d="M419.423 236.637H431.736" stroke="#072B2C" stroke-width="0.829701" stroke-linecap="round" stroke-linejoin="round"/>
<path d="M434.617 236.637H446.93" stroke="#072B2C" stroke-width="0.829701" stroke-linecap="round" stroke-linejoin="round"/>
<path d="M404.203 239.506H416.516" stroke="#072B2C" stroke-width="0.829701" stroke-linecap="round" stroke-linejoin="round"/>
<path d="M419.423 239.506H431.736" stroke="#072B2C" stroke-width="0.829701" stroke-linecap="round" stroke-linejoin="round"/>
<path d="M434.617 239.506H446.93" stroke="#072B2C" stroke-width="0.829701" stroke-linecap="round" stroke-linejoin="round"/>
<path d="M404.203 242.363H416.516" stroke="#072B2C" stroke-width="0.829701" stroke-linecap="round" stroke-linejoin="round"/>
<path d="M419.423 242.363H431.736" stroke="#072B2C" stroke-width="0.829701" stroke-linecap="round" stroke-linejoin="round"/>
<path d="M434.617 242.363H446.93" stroke="#072B2C" stroke-width="0.829701" stroke-linecap="round" stroke-linejoin="round"/>
<path d="M404.203 245.244H416.516" stroke="#072B2C" stroke-width="0.829701" stroke-linecap="round" stroke-linejoin="round"/>
<path d="M419.423 245.244H431.736" stroke="#072B2C" stroke-width="0.829701" stroke-linecap="round" stroke-linejoin="round"/>
<path d="M434.617 245.244H446.93" stroke="#072B2C" stroke-width="0.829701" stroke-linecap="round" stroke-linejoin="round"/>
<path d="M404.203 248.101H416.516" stroke="#072B2C" stroke-width="0.829701" stroke-linecap="round" stroke-linejoin="round"/>
<path d="M419.423 248.101H431.736" stroke="#072B2C" stroke-width="0.829701" stroke-linecap="round" stroke-linejoin="round"/>
<path d="M434.617 248.101H446.93" stroke="#072B2C" stroke-width="0.829701" stroke-linecap="round" stroke-linejoin="round"/>
<path d="M404.203 250.983H416.516" stroke="#072B2C" stroke-width="0.829701" stroke-linecap="round" stroke-linejoin="round"/>
<path d="M419.423 250.983H431.736" stroke="#072B2C" stroke-width="0.829701" stroke-linecap="round" stroke-linejoin="round"/>
<path d="M434.617 250.983H446.93" stroke="#072B2C" stroke-width="0.829701" stroke-linecap="round" stroke-linejoin="round"/>
<path d="M305.473 135.14C301.099 135.138 296.822 136.433 293.184 138.861C289.545 141.289 286.709 144.741 285.032 148.781C283.356 152.821 282.916 157.268 283.766 161.558C284.617 165.849 286.721 169.791 289.813 172.886C292.904 175.981 296.843 178.089 301.133 178.945C305.422 179.801 309.869 179.365 313.912 177.694C317.954 176.022 321.409 173.19 323.842 169.554C326.274 165.919 327.573 161.643 327.576 157.269C327.573 151.406 325.244 145.783 321.1 141.635C316.956 137.486 311.336 135.151 305.473 135.14ZM305.473 172.862C302.376 172.862 299.348 171.944 296.773 170.223C294.198 168.502 292.191 166.056 291.006 163.194C289.821 160.332 289.512 157.183 290.117 154.146C290.722 151.108 292.215 148.318 294.406 146.129C296.597 143.94 299.388 142.45 302.426 141.847C305.464 141.244 308.613 141.556 311.474 142.743C314.334 143.93 316.779 145.939 318.498 148.516C320.217 151.092 321.133 154.121 321.13 157.218C321.13 159.273 320.725 161.309 319.938 163.208C319.151 165.107 317.998 166.832 316.544 168.285C315.089 169.738 313.363 170.89 311.464 171.675C309.564 172.461 307.528 172.864 305.473 172.862Z" fill="white" stroke="#072B2C" stroke-width="0.829701" stroke-linecap="round" stroke-linejoin="round"/>
<path d="M320.693 153.538L326.804 151.248C325.749 147.497 323.721 144.091 320.926 141.376C318.13 138.662 314.666 136.735 310.885 135.792C307.104 134.848 303.14 134.922 299.397 136.005C295.654 137.088 292.264 139.143 289.571 141.959L294.254 146.449C296.188 144.427 298.631 142.962 301.326 142.208C304.021 141.454 306.87 141.438 309.573 142.163C312.276 142.888 314.734 144.326 316.691 146.328C318.647 148.329 320.029 150.819 320.693 153.538Z" fill="#072B2C" stroke="#072B2C" stroke-width="1.00786" stroke-linecap="round" stroke-linejoin="round"/>
<path d="M299.027 156.086H311.339" stroke="#072B2C" stroke-width="0.829701" stroke-linecap="round" stroke-linejoin="round"/>
<path d="M299.027 158.427H311.339" stroke="#072B2C" stroke-width="0.829701" stroke-linecap="round" stroke-linejoin="round"/>
<path d="M377.173 143.863C374.524 140.386 370.903 137.772 366.769 136.352C362.635 134.933 358.172 134.771 353.946 135.887C349.719 137.003 345.919 139.347 343.025 142.623C340.131 145.899 338.273 149.96 337.687 154.292C337.1 158.624 337.811 163.032 339.73 166.96C341.649 170.887 344.689 174.158 348.467 176.358C352.244 178.557 356.589 179.588 360.952 179.318C365.315 179.049 369.5 177.492 372.979 174.844C375.29 173.086 377.232 170.89 378.694 168.382C380.156 165.873 381.109 163.101 381.498 160.223C381.888 157.346 381.706 154.42 380.964 151.613C380.222 148.805 378.934 146.172 377.173 143.863ZM347.157 166.726C345.277 164.265 344.169 161.302 343.972 158.212C343.776 155.121 344.5 152.042 346.054 149.363C347.608 146.685 349.921 144.527 352.701 143.162C355.481 141.798 358.603 141.289 361.672 141.699C364.742 142.11 367.621 143.421 369.945 145.467C372.269 147.513 373.934 150.203 374.73 153.196C375.526 156.188 375.416 159.35 374.415 162.28C373.414 165.211 371.566 167.779 369.106 169.659C365.805 172.177 361.64 173.283 357.525 172.733C353.41 172.183 349.681 170.022 347.157 166.726Z" fill="white" stroke="#072B2C" stroke-width="0.829701" stroke-linecap="round" stroke-linejoin="round"/>
<path d="M371.718 167.06L377.25 170.547C379.591 167.433 381.069 163.755 381.532 159.887C381.996 156.018 381.429 152.096 379.89 148.517C378.35 144.937 375.892 141.829 372.765 139.504C369.638 137.18 365.952 135.724 362.081 135.282L361.335 141.715C364.107 142.045 366.741 143.111 368.963 144.802C371.185 146.493 372.914 148.747 373.972 151.331C375.03 153.915 375.377 156.734 374.979 159.498C374.58 162.261 373.45 164.868 371.705 167.047L371.718 167.06Z" fill="#072B2C" stroke="#072B2C" stroke-width="1.00786" stroke-linecap="round" stroke-linejoin="round"/>
<path d="M353.127 156.086H365.44" stroke="#072B2C" stroke-width="0.829701" stroke-linecap="round" stroke-linejoin="round"/>
<path d="M353.127 158.427H365.44" stroke="#072B2C" stroke-width="0.829701" stroke-linecap="round" stroke-linejoin="round"/>
<path d="M442.646 298.534C439.997 295.057 436.377 292.443 432.243 291.023C428.108 289.603 423.646 289.441 419.419 290.557C415.193 291.673 411.392 294.018 408.498 297.294C405.604 300.57 403.746 304.63 403.16 308.962C402.574 313.294 403.285 317.702 405.204 321.63C407.122 325.558 410.163 328.828 413.94 331.028C417.718 333.228 422.063 334.258 426.426 333.989C430.789 333.719 434.974 332.162 438.452 329.514C440.762 327.756 442.703 325.559 444.164 323.051C445.625 320.542 446.577 317.77 446.967 314.893C447.356 312.016 447.175 309.09 446.434 306.284C445.692 303.477 444.405 300.843 442.646 298.534ZM412.631 321.37C410.754 318.908 409.649 315.943 409.457 312.853C409.264 309.762 409.993 306.684 411.549 304.008C413.106 301.331 415.422 299.176 418.203 297.815C420.985 296.454 424.107 295.949 427.176 296.363C430.245 296.776 433.122 298.091 435.444 300.14C437.766 302.188 439.428 304.88 440.22 307.873C441.013 310.866 440.9 314.027 439.896 316.957C438.892 319.886 437.042 322.452 434.579 324.329C432.944 325.577 431.079 326.49 429.091 327.016C427.103 327.542 425.03 327.672 422.992 327.397C420.954 327.122 418.99 326.448 417.212 325.414C415.434 324.38 413.877 323.006 412.631 321.37Z" fill="#43916F" stroke="#072B2C" stroke-width="1.10627" stroke-linecap="round" stroke-linejoin="round"/>
<path d="M437.178 321.731L442.723 325.204C445.065 322.092 446.544 318.417 447.008 314.55C447.473 310.682 446.907 306.761 445.369 303.183C443.831 299.605 441.374 296.497 438.248 294.173C435.122 291.85 431.437 290.394 427.568 289.952L426.822 296.385C429.595 296.714 432.23 297.779 434.453 299.47C436.675 301.161 438.405 303.416 439.462 306.001C440.519 308.586 440.864 311.407 440.463 314.171C440.061 316.934 438.927 319.54 437.178 321.718V321.731Z" fill="#072B2C" stroke="#072B2C" stroke-width="1.00786" stroke-linecap="round" stroke-linejoin="round"/>
<path d="M418.6 310.756H430.912" stroke="#072B2C" stroke-width="0.829701" stroke-linecap="round" stroke-linejoin="round"/>
<path d="M418.6 313.072H430.912" stroke="#072B2C" stroke-width="0.829701" stroke-linecap="round" stroke-linejoin="round"/>
<path d="M185.256 63.7878C185.256 63.7878 177.408 66.8112 175.144 70.7995C173.716 73.2183 175.015 78.3388 180.638 80.2944C183.056 81.1564 186.53 80.0499 190.441 78.6347C194.352 77.2195 190.969 62.0123 185.256 63.7878Z" fill="white" stroke="#072B2C" stroke-width="0.829701" stroke-linecap="round" stroke-linejoin="round"/>
<path opacity="0.5" d="M182.632 79.0335C182.632 79.0335 177.486 77.9528 177.486 73.6814C177.486 69.41 184.394 66.7597 186.376 66.7597C188.357 66.7597 189.335 68.741 189.335 72.0346C189.335 75.3282 185.475 80.1271 182.632 79.0335Z" fill="#43916F"/>
<path d="M87.2716 87.3447L101.231 132.374L99.3781 142.551L104.524 149.949L106.377 149.022L107.303 142.075V136.53L109.619 143.928L111.922 142.5L110.507 131.86L105.875 124.449L99.4425 89.326C99.4425 89.326 93.1898 86.0967 87.2716 87.3447Z" fill="white" stroke="#072B2C" stroke-width="0.829701" stroke-linecap="round" stroke-linejoin="round"/>
<path d="M104.267 149.241L100.703 141.162" stroke="#072B2C" stroke-width="0.553134" stroke-linecap="round" stroke-linejoin="round"/>
<path d="M106.275 148.958L103.328 139.296" stroke="#072B2C" stroke-width="0.553134" stroke-linecap="round" stroke-linejoin="round"/>
<path d="M190.596 70.1948L215.864 101.999L223.75 108.689L224.522 117.695L222.489 118.158L217.343 113.385L213.818 109.113L216.738 116.228L214.062 116.627L208.402 107.441L208.517 101.15L182.632 78.9949C180.496 77.1423 180.908 71.6229 183.352 70.2077C184.475 69.6411 185.715 69.3448 186.972 69.3426C188.23 69.3403 189.471 69.6322 190.596 70.1948Z" fill="white" stroke="#072B2C" stroke-width="0.829701" stroke-linecap="round" stroke-linejoin="round"/>
<path d="M223.673 118.042L217.485 107.158" stroke="#072B2C" stroke-width="0.553134" stroke-linecap="round" stroke-linejoin="round"/>
<path d="M223.493 114.105L220.675 108.097" stroke="#072B2C" stroke-width="0.553134" stroke-linecap="round" stroke-linejoin="round"/>
<path d="M474.128 248.795L459.23 228.095L455.679 229.613L465.534 253.337L474.128 248.795Z" fill="white" stroke="#072B2C" stroke-width="0.829701" stroke-linecap="round" stroke-linejoin="round"/>
<path d="M445.939 223.527L449.362 225.586L450.301 224.299L445.888 217.03C445.283 215.075 446.853 216.425 446.853 216.425L450.301 221.199L447.085 212.656C447.728 210.855 448.911 212.193 448.911 212.193L452.475 219.462L451.639 211.639C452.218 210.031 453.067 211.639 453.067 211.639L455.37 220.028C455.486 218.523 455.692 217.455 455.897 215.975C456.013 215.062 455.73 214.689 456.515 214.547C457.93 214.341 457.596 216.335 457.647 217.236C457.763 218.999 457.879 220.761 457.982 222.511L459.268 228.802L455.653 230.41L450.108 228.596L445.258 224.93C444.511 223.116 445.939 223.527 445.939 223.527Z" fill="white" stroke="#072B2C" stroke-width="0.829701" stroke-linecap="round" stroke-linejoin="round"/>
<path d="M472.352 249.387C472.352 249.387 468.081 249.632 466.305 251.15C464.53 252.668 463.462 253.929 462.034 253.723C461.748 253.609 461.438 253.567 461.131 253.601C460.825 253.635 460.532 253.744 460.278 253.918C460.023 254.093 459.816 254.327 459.673 254.6C459.531 254.873 459.458 255.177 459.461 255.486C459.216 256.991 459.962 258.059 459.962 258.766C459.962 259.474 458.573 264.787 458.573 267.052C458.573 269.316 459.319 269.895 461.339 270.847C462.774 271.517 464.307 271.952 465.881 272.134C466.146 274.568 466.232 277.02 466.138 279.467C466.028 280.735 465.584 281.951 464.851 282.992C467.534 283.305 470.231 283.477 472.931 283.507C474.794 283.574 476.658 283.401 478.476 282.992C478.476 282.992 471.915 276.186 471.915 267.849C471.915 259.512 473.69 254.225 474.771 252.411C475.852 250.597 475.144 250.069 472.352 249.387Z" fill="white" stroke="#072B2C" stroke-width="0.829701" stroke-linecap="round" stroke-linejoin="round"/>
<path d="M461.507 264.556C460.926 264.492 460.364 264.306 459.859 264.011C459.354 263.717 458.916 263.319 458.574 262.845C458.547 262.799 458.529 262.749 458.521 262.696C458.514 262.644 458.517 262.59 458.53 262.539C458.543 262.487 458.566 262.439 458.598 262.397C458.63 262.354 458.67 262.318 458.715 262.291C458.761 262.264 458.811 262.247 458.864 262.239C458.916 262.232 458.97 262.234 459.021 262.248C459.073 262.261 459.121 262.284 459.163 262.316C459.206 262.347 459.241 262.387 459.269 262.433C459.548 262.802 459.902 263.107 460.308 263.329C460.713 263.551 461.162 263.684 461.623 263.719C461.727 263.735 461.82 263.792 461.883 263.876C461.945 263.96 461.972 264.066 461.957 264.17C461.954 264.222 461.941 264.272 461.917 264.319C461.894 264.365 461.862 264.407 461.822 264.44C461.782 264.474 461.736 264.499 461.687 264.515C461.637 264.53 461.585 264.535 461.533 264.53L461.507 264.556Z" fill="#072B2C"/>
<path d="M464.144 255.846C464.012 255.847 463.883 255.804 463.778 255.725C463.672 255.646 463.595 255.535 463.558 255.408C463.522 255.281 463.528 255.146 463.576 255.023C463.623 254.9 463.71 254.796 463.822 254.726L465.469 253.71C465.602 253.629 465.762 253.604 465.914 253.64C466.066 253.676 466.197 253.77 466.279 253.903C466.361 254.042 466.385 254.207 466.346 254.363C466.308 254.519 466.21 254.654 466.074 254.739L464.44 255.73C464.354 255.797 464.252 255.837 464.144 255.846Z" fill="#072B2C"/>
<path d="M453.929 393.585C453.929 393.585 454.431 405.241 455.602 412.279C456.773 419.316 467.284 466.765 467.284 469.698C467.284 472.631 457.287 480.544 457.287 480.544C457.287 480.544 454.444 484.108 457.969 483.194C460.825 482.461 472.906 479.334 477.268 475.59C479.172 473.982 474.939 467.395 474.939 467.395C474.939 467.395 472.096 422.841 470.282 415.83C469.315 411.874 468.147 407.971 466.782 404.135L472.597 391.771L453.929 393.585Z" fill="white" stroke="#072B2C" stroke-width="0.829701" stroke-linecap="round" stroke-linejoin="round"/>
<path opacity="0.5" d="M470.217 415.778C469.251 411.823 468.083 407.92 466.718 404.083L472.572 391.81L453.929 393.585C453.929 393.585 454.122 397.856 454.534 402.9C455.984 403.528 457.476 404.057 458.998 404.482C460.45 404.829 461.933 405.023 463.424 405.061C465.235 409.689 466.333 414.565 466.679 419.522C467.271 427.782 472.88 469.093 472.88 469.093L473.807 477.636C475.031 477.067 476.187 476.364 477.255 475.539C479.146 473.931 474.913 467.344 474.913 467.344C474.913 467.344 471.98 422.79 470.217 415.778Z" fill="#43916F"/>
<path d="M475.17 467.845C473.257 468.227 471.44 468.993 469.831 470.097L467.258 469.698C467.258 472.541 457.223 480.492 457.223 480.492C457.223 480.492 454.38 484.056 457.905 483.143C460.748 482.409 472.842 479.283 477.203 475.539C478.786 474.265 476.097 469.376 475.17 467.845Z" fill="#072B2C"/>
<path d="M457.904 483.117C460.748 482.384 472.841 479.257 477.203 475.513C477.433 475.252 477.593 474.937 477.667 474.597C477.741 474.257 477.728 473.904 477.627 473.571L456.283 481.869C455.897 482.808 455.897 483.657 457.904 483.117Z" fill="white" stroke="#072B2C" stroke-width="0.829701" stroke-linecap="round" stroke-linejoin="round"/>
<path d="M492.101 385.338L483.764 399.722C486.799 403.609 489.2 407.951 490.879 412.588C492.847 418.274 501.171 450.258 506.189 464.925C506.77 466.765 507.638 468.502 508.762 470.071C509.55 471.073 510 472.298 510.049 473.571C510.113 474.319 509.879 475.063 509.396 475.639C508.914 476.215 508.224 476.577 507.476 476.646C504.465 477.083 487.65 478.562 486.788 477.855C486.234 477.392 494.649 473.867 498.174 471.551C499.3 470.849 500.272 469.925 501.03 468.836C501.03 468.836 476.984 416.923 474.437 410.619C472.38 405.575 471.437 400.147 471.671 394.704C471.835 390.052 472.265 385.413 472.957 380.81L492.101 385.338Z" fill="white"/>
<mask id="mask3_7388_31635" style="mask-type:luminance" maskUnits="userSpaceOnUse" x="471" y="380" width="40" height="99">
<path d="M492.101 385.338L483.764 399.722C486.799 403.609 489.2 407.951 490.879 412.588C492.847 418.274 501.171 450.258 506.189 464.925C506.77 466.765 507.638 468.502 508.762 470.071C509.55 471.073 510 472.298 510.049 473.571C510.113 474.319 509.879 475.063 509.396 475.639C508.914 476.215 508.224 476.577 507.476 476.646C504.465 477.083 487.65 478.562 486.788 477.855C486.234 477.392 494.649 473.867 498.174 471.551C499.3 470.849 500.272 469.925 501.03 468.836C501.03 468.836 476.984 416.923 474.437 410.619C472.38 405.575 471.437 400.147 471.671 394.704C471.835 390.052 472.265 385.413 472.957 380.81L492.101 385.338Z" fill="white"/>
</mask>
<g mask="url(#mask3_7388_31635)">
<path opacity="0.5" d="M506.176 464.976C501.107 450.31 492.847 418.3 490.879 412.639C489.2 408.002 486.799 403.66 483.764 399.773L492.024 385.338L476.058 381.556L472.584 382.598C472.02 386.603 471.68 390.636 471.567 394.679C471.533 396.461 471.597 398.243 471.76 400.018C473.229 400.65 474.76 401.124 476.328 401.433C477.684 401.739 479.059 401.95 480.445 402.064C481.914 404.857 483.005 407.833 483.687 410.915C485.115 416.808 503.436 466.958 504.04 468.437C504.645 469.917 506.987 470.2 504.04 475.552L503.165 477.096C505.031 476.929 506.511 476.748 507.231 476.658C507.977 476.59 508.665 476.23 509.147 475.656C509.629 475.083 509.865 474.343 509.804 473.596C509.767 472.321 509.316 471.092 508.518 470.097C507.485 468.517 506.696 466.791 506.176 464.976Z" fill="#43916F"/>
</g>
<path d="M492.101 385.338L483.764 399.722C486.799 403.609 489.2 407.951 490.879 412.588C492.847 418.274 501.171 450.258 506.189 464.925C506.77 466.765 507.638 468.502 508.762 470.071C509.55 471.073 510 472.298 510.049 473.571C510.113 474.319 509.879 475.063 509.396 475.639C508.914 476.215 508.224 476.577 507.476 476.645C504.465 477.083 487.65 478.562 486.788 477.855C486.234 477.392 494.649 473.867 498.174 471.551C499.3 470.849 500.272 469.925 501.03 468.836C501.03 468.836 476.984 416.923 474.437 410.619C472.38 405.575 471.437 400.147 471.671 394.704C471.835 390.052 472.265 385.413 472.957 380.81L492.101 385.338Z" stroke="#072B2C" stroke-width="0.829701" stroke-linecap="round" stroke-linejoin="round"/>
<path d="M510.036 473.609C509.988 472.336 509.537 471.111 508.75 470.11L508.557 469.84C506.815 471.072 504.704 471.672 502.574 471.538V469.479C502.574 467.382 500.992 468.836 500.992 468.836C500.214 469.927 499.22 470.847 498.071 471.538C494.533 473.854 486.119 477.379 486.685 477.842C487.547 478.55 504.363 477.07 507.373 476.633C508.12 476.561 508.808 476.198 509.29 475.623C509.771 475.047 510.007 474.306 509.946 473.558L510.036 473.609Z" fill="#072B2C"/>
<path d="M510.036 474.265C504.336 474.857 494.996 475.552 490.107 475.874C488.061 476.89 486.569 477.688 486.813 477.893C487.675 478.601 504.478 477.121 507.501 476.684C508.141 476.645 508.747 476.381 509.211 475.938C509.675 475.496 509.967 474.903 510.036 474.265Z" fill="white" stroke="#072B2C" stroke-width="0.829701" stroke-linecap="round" stroke-linejoin="round"/>
<path d="M463.54 329.669C463.54 329.669 459.268 340.489 453.247 357.24C447.226 373.991 452.797 399.323 452.797 399.323C452.797 399.323 457.21 402.076 469.149 398.757C481.088 395.438 491.123 392.003 491.123 392.003C491.123 392.003 498.843 373.322 499.293 361.408C499.743 349.495 491.767 334.892 491.767 334.892C491.767 334.892 475.543 314.86 463.54 329.669Z" fill="white"/>
<mask id="mask4_7388_31635" style="mask-type:luminance" maskUnits="userSpaceOnUse" x="450" y="324" width="50" height="77">
<path d="M463.54 329.669C463.54 329.669 459.268 340.489 453.247 357.24C447.226 373.991 452.797 399.323 452.797 399.323C452.797 399.323 457.21 402.076 469.149 398.757C481.088 395.438 491.123 392.003 491.123 392.003C491.123 392.003 498.843 373.322 499.293 361.408C499.743 349.495 491.767 334.892 491.767 334.892C491.767 334.892 475.543 314.86 463.54 329.669Z" fill="white"/>
</mask>
<g mask="url(#mask4_7388_31635)">
<path d="M470.153 324.87L466.473 339.601C466.473 339.601 475.016 355.824 475.916 359.671C476.817 363.518 478.567 363.801 472.97 370.89C467.374 377.979 461.455 384.746 463.823 383.859C466.19 382.971 475.286 373.309 474.115 377.078C472.944 380.848 466.164 385.042 463.823 389.172C461.956 392.726 460.555 396.505 459.654 400.417C462.911 400.258 466.137 399.714 469.265 398.796C481.217 395.489 491.239 392.028 491.239 392.028C491.239 392.028 498.959 373.36 499.409 361.447C499.859 349.533 491.883 334.931 491.883 334.931C491.883 334.931 480.69 321.229 470.153 324.87Z" fill="#43916F"/>
</g>
<path d="M463.54 329.669C463.54 329.669 459.268 340.489 453.247 357.24C447.226 373.991 452.797 399.323 452.797 399.323C452.797 399.323 457.21 402.076 469.149 398.757C481.088 395.438 491.123 392.003 491.123 392.003C491.123 392.003 498.843 373.322 499.293 361.408C499.743 349.495 491.767 334.892 491.767 334.892C491.767 334.892 475.543 314.86 463.54 329.669Z" stroke="#072B2C" stroke-width="0.829701" stroke-linecap="round" stroke-linejoin="round"/>
<path d="M472.983 385.621C472.983 385.621 488.731 374.698 493.195 362.579" stroke="#072B2C" stroke-width="0.553134" stroke-linecap="round" stroke-linejoin="round"/>
<path d="M467.283 384.412C467.283 384.412 476.585 379.96 481.435 375.097" stroke="#072B2C" stroke-width="0.553134" stroke-linecap="round" stroke-linejoin="round"/>
<path d="M465.663 385.222L461.623 386.02" stroke="#072B2C" stroke-width="0.553134" stroke-linecap="round" stroke-linejoin="round"/>
<path d="M461.725 281.294C463.878 280.109 466.248 279.37 468.692 279.12C471.137 278.87 473.607 279.115 475.955 279.84C484.498 282.079 480.612 285.244 476.984 285.707C473.356 286.17 461.725 281.294 461.725 281.294Z" fill="white" stroke="#072B2C" stroke-width="0.829701" stroke-linecap="round" stroke-linejoin="round"/>
<path d="M475.647 282.117C471.727 281.387 467.757 280.957 463.772 280.831C458.715 280.831 449.375 281.345 444.589 279.068C439.803 276.791 433.409 270.86 433.409 270.86L422.627 238.696L417.854 239.03C417.854 239.03 422.422 266.048 422.422 270.834C422.431 274.819 423.864 278.67 426.461 281.693C428.739 284.729 444.589 293.683 450.391 296.707L452.965 297.993C452.965 297.993 448.423 304.812 449.182 307.836C449.941 310.859 455.988 314.654 457.262 316.919C458.535 319.183 462.948 331.56 462.948 331.56C466.533 325.076 469.788 318.433 472.713 311.631C478.67 298.045 483.469 287.945 475.647 282.117Z" fill="white"/>
<mask id="mask5_7388_31635" style="mask-type:luminance" maskUnits="userSpaceOnUse" x="417" y="238" width="63" height="94">
<path d="M475.647 282.117C471.727 281.387 467.757 280.957 463.772 280.831C458.715 280.831 449.375 281.345 444.589 279.068C439.803 276.791 433.409 270.86 433.409 270.86L422.627 238.696L417.854 239.03C417.854 239.03 422.422 266.048 422.422 270.834C422.431 274.819 423.864 278.67 426.461 281.693C428.739 284.729 444.589 293.683 450.391 296.707L452.965 297.993C452.965 297.993 448.423 304.812 449.182 307.836C449.941 310.859 455.988 314.654 457.262 316.919C458.535 319.183 462.948 331.56 462.948 331.56C466.533 325.076 469.788 318.433 472.713 311.631C478.67 298.045 483.469 287.945 475.647 282.117Z" fill="white"/>
</mask>
<g mask="url(#mask5_7388_31635)">
<path opacity="0.5" d="M472.61 311.682C478.67 298.045 483.469 287.945 475.646 282.092C471.726 281.368 467.756 280.938 463.772 280.805H460.311C462.099 281.731 466.615 284.562 466.37 289.348C466.087 295.253 460.787 292.886 451.922 292.59C443.058 292.294 445.721 292.886 448.963 295.832L449.414 296.205L450.391 296.72L452.964 298.006L452.707 298.418C457.056 300.991 463 303.989 463.18 305.314C463.476 307.077 459.05 308.839 460.233 312.686C460.967 315.015 462.112 321.628 464.093 327.173C467.442 322.306 470.295 317.117 472.61 311.682Z" fill="#43916F"/>
</g>
<path d="M475.647 282.117C471.727 281.387 467.757 280.957 463.772 280.831C458.715 280.831 449.375 281.345 444.589 279.068C439.803 276.791 433.409 270.86 433.409 270.86L422.627 238.696L417.854 239.03C417.854 239.03 422.422 266.048 422.422 270.834C422.431 274.819 423.864 278.67 426.461 281.693C428.739 284.729 444.589 293.683 450.391 296.707L452.965 297.993C452.965 297.993 448.423 304.812 449.182 307.836C449.941 310.859 455.988 314.654 457.262 316.919C458.535 319.183 462.948 331.56 462.948 331.56C466.533 325.076 469.788 318.433 472.713 311.631C478.67 298.045 483.469 287.945 475.647 282.117Z" stroke="#072B2C" stroke-width="0.829701" stroke-linecap="round" stroke-linejoin="round"/>
<path d="M425.624 226.332L424.338 230.436L422.64 230.037L421.031 221.031C420.131 219.024 419.835 221.224 419.835 221.224L420.427 227.567L416.914 218.33C415.1 217.313 415.1 219.217 415.1 219.217L417.416 227.657L412.476 220.658C410.868 219.758 411.266 221.662 411.266 221.662L415.383 230.089C414.331 229.085 413.227 228.136 412.077 227.245C411.318 226.602 411.318 226.113 410.649 226.589C409.362 227.426 411.035 228.789 411.639 229.574L415.126 234.077L417.892 239.108L422.665 238.786L425.869 233.357L427.155 226.924C426.409 225.02 425.624 226.332 425.624 226.332Z" fill="white" stroke="#072B2C" stroke-width="0.829701" stroke-linecap="round" stroke-linejoin="round"/>
<path d="M452.913 298.045L460.014 303.153" stroke="#072B2C" stroke-width="0.553134" stroke-linecap="round" stroke-linejoin="round"/>
<path d="M455.164 300.322L458.393 306.382" stroke="#072B2C" stroke-width="0.553134" stroke-linecap="round" stroke-linejoin="round"/>
<path d="M476.906 285.668C476.906 285.668 469.084 278.541 465.791 269.766C462.497 260.992 466.022 250.468 470.306 246.492C474.591 242.517 489.27 247.779 493.079 257.878C496.887 267.978 490.505 277.807 488.537 280.097C486.569 282.388 480.2 285.643 480.2 285.643C487.044 292.115 492.46 299.946 496.102 308.633C501.917 322.786 500.373 331.405 496.861 340.952C493.349 350.498 479.441 361.665 479.441 361.665C479.441 361.665 465.006 344.233 461.764 330.093C458.521 315.954 472.108 291.226 476.906 285.668Z" fill="#072B2C"/>
<path d="M477.396 274.848C464.865 268.415 468.094 252.218 468.094 252.218C468.094 252.218 473.793 265.945 481.037 266.756" stroke="white" stroke-width="0.553134" stroke-linecap="round" stroke-linejoin="round"/>
<path d="M476.585 291.02C474.286 300.758 472.529 310.615 471.323 320.547C469.303 337.131 476.212 357.15 479.428 361.717" stroke="white" stroke-width="0.553134" stroke-linecap="round" stroke-linejoin="round"/>
<path d="M478.669 288.988C478.669 288.988 485.54 311.245 483.52 326.195C482.593 333.807 481.244 341.363 479.48 348.826" stroke="white" stroke-width="0.553134" stroke-linecap="round" stroke-linejoin="round"/>
<path d="M480.625 290.66C480.625 290.66 494.777 314.101 492.744 332.306C490.711 350.511 485.475 355.348 485.475 355.348" stroke="white" stroke-width="0.553134" stroke-linecap="round" stroke-linejoin="round"/>
</svg>
