<svg width="173" height="46" viewBox="0 0 173 46" fill="none" xmlns="http://www.w3.org/2000/svg">
<path fill-rule="evenodd" clip-rule="evenodd" d="M135.295 0H172.842V37.5474H135.295V0ZM147.698 25.1041C147.284 25.4456 147.078 25.9309 147.078 26.5601C147.078 27.1892 147.284 27.6835 147.698 28.043C148.111 28.3845 148.615 28.5552 149.208 28.5552C149.783 28.5552 150.277 28.3845 150.691 28.043C151.104 27.6835 151.311 27.1892 151.311 26.5601C151.311 25.9309 151.104 25.4456 150.691 25.1041C150.277 24.7446 149.783 24.5649 149.208 24.5649C148.615 24.5649 148.111 24.7446 147.698 25.1041ZM156.789 28.4204H160.483V9.54709H156.789C156.43 10.2661 155.926 10.8592 155.279 11.3266C154.632 11.7759 153.904 11.9916 153.095 11.9737V15.2361C153.437 15.2361 153.787 15.2001 154.147 15.1282C154.506 15.0563 154.848 14.9574 155.171 14.8316C155.513 14.7058 155.818 14.553 156.088 14.3733C156.376 14.1756 156.609 13.9688 156.789 13.7531V28.4204Z" fill="#105F62"/>
<path fill-rule="evenodd" clip-rule="evenodd" d="M0 0H135.2V37.5474H0V0ZM21.9848 24.6458C21.2299 25.0951 20.394 25.3198 19.4773 25.3198C18.7583 25.3198 18.0843 25.185 17.4552 24.9154C16.8261 24.6278 16.2778 24.2144 15.8105 23.6751C15.3432 23.1359 14.9747 22.4708 14.7051 21.68C14.4355 20.8891 14.3006 19.9814 14.3006 18.9568C14.3006 17.9502 14.4355 17.0605 14.7051 16.2876C14.9747 15.4967 15.3432 14.8316 15.8105 14.2924C16.2778 13.7531 16.8261 13.3487 17.4552 13.0791C18.0843 12.7915 18.7583 12.6477 19.4773 12.6477C20.394 12.6477 21.2299 12.8814 21.9848 13.3487C22.7397 13.7981 23.3419 14.4811 23.7912 15.3978L26.8379 13.4026C26.0471 12.1085 25.0045 11.1199 23.7104 10.4368C22.4342 9.7538 21.0142 9.41228 19.4504 9.41228C18.2281 9.41228 17.0777 9.62798 15.9992 10.0594C14.9387 10.4728 14.0041 11.0929 13.1952 11.9197C12.4043 12.7286 11.7752 13.7262 11.3079 14.9125C10.8405 16.0988 10.6069 17.4559 10.6069 18.9838C10.6069 20.5116 10.8405 21.8687 11.3079 23.055C11.7752 24.2413 12.4043 25.2479 13.1952 26.0747C14.0041 26.8836 14.9387 27.5037 15.9992 27.9351C17.0777 28.3485 18.2281 28.5552 19.4504 28.5552C21.0142 28.5552 22.4342 28.2137 23.7104 27.5307C25.0045 26.8477 26.0471 25.8591 26.8379 24.5649L23.7912 22.5697C23.3419 23.4864 22.7397 24.1784 21.9848 24.6458ZM32.8991 9.54709H29.2323V28.4204H32.8991V20.0083H40.3406V28.4204H44.0074V9.54709H40.3406V16.7459H32.8991V9.54709ZM54.8189 13.16L57.1107 20.8441H52.5272L54.8189 13.16ZM50.2354 28.4204L51.5296 24.0796H58.0813L59.3755 28.4204H63.3389L57.3533 9.54709H52.3115L46.3259 28.4204H50.2354ZM69.3398 19.0377V12.8095H71.2811C72.5752 12.8095 73.5639 13.0701 74.2469 13.5914C74.9479 14.0947 75.2984 14.8676 75.2984 15.9101C75.2984 16.9706 74.9479 17.7615 74.2469 18.2828C73.5639 18.786 72.5752 19.0377 71.2811 19.0377H69.3398ZM69.3398 28.4204V22.3001H71.8473C72.9258 22.3001 73.9054 22.1743 74.7861 21.9226C75.6849 21.653 76.4398 21.2575 77.0509 20.7363C77.68 20.197 78.1654 19.532 78.5069 18.7411C78.8484 17.9322 79.0191 16.9886 79.0191 15.9101C79.0191 14.8316 78.8214 13.8969 78.426 13.1061C78.0485 12.3152 77.5093 11.6591 76.8083 11.1378C76.1073 10.5986 75.2625 10.2032 74.2738 9.95152C73.2852 9.6819 72.1798 9.54709 70.9575 9.54709H65.646V28.4204H69.3398ZM80.153 12.8095H85.4106V28.4204H89.1044V12.8095H94.362V9.54709H80.153V12.8095ZM108.614 9.54709H96.4001V28.4204H108.614V25.158H100.067V20.0083H106.673V16.7459H100.067V12.8095H108.614V9.54709ZM115.022 18.5254V12.8095H117.26C118.482 12.8095 119.426 13.0432 120.091 13.5105C120.756 13.9778 121.089 14.6878 121.089 15.6405C121.089 16.6111 120.756 17.3391 120.091 17.8244C119.426 18.2917 118.482 18.5254 117.26 18.5254H115.022ZM117.799 21.7878L121.035 28.4204H124.837L121.304 21.1946C122.401 20.7632 123.255 20.0892 123.866 19.1725C124.477 18.2558 124.783 17.0785 124.783 15.6405C124.783 14.6159 124.603 13.7262 124.243 12.9713C123.884 12.1983 123.363 11.5602 122.68 11.057C122.014 10.5537 121.206 10.1762 120.253 9.92456C119.3 9.67291 118.24 9.54709 117.071 9.54709H111.356V28.4204H115.022V21.7878H117.799Z" fill="#43916F"/>
<path d="M28.8016 45.7214C28.5243 45.7214 28.2858 45.6707 28.0863 45.5692C27.8901 45.4678 27.7177 45.3207 27.5688 45.1279L27.8935 44.8032C28.0051 44.9588 28.1336 45.0772 28.2791 45.1583C28.4245 45.2361 28.6037 45.275 28.8168 45.275C29.0265 45.275 29.1939 45.2293 29.319 45.138C29.4475 45.0467 29.5118 44.9216 29.5118 44.7626C29.5118 44.6307 29.4813 44.5242 29.4205 44.443C29.3596 44.3619 29.2767 44.2959 29.1719 44.2452C29.0704 44.1911 28.9588 44.1437 28.8371 44.1031C28.7153 44.0592 28.5936 44.0135 28.4718 43.9662C28.3501 43.9154 28.2368 43.8546 28.1319 43.7836C28.0305 43.7091 27.9493 43.6128 27.8884 43.4944C27.8276 43.376 27.7971 43.2272 27.7971 43.048C27.7971 42.8518 27.8445 42.6827 27.9392 42.5407C28.0372 42.3986 28.1691 42.2904 28.3349 42.216C28.504 42.1382 28.6933 42.0993 28.903 42.0993C29.133 42.0993 29.3376 42.145 29.5169 42.2363C29.6995 42.3242 29.85 42.4409 29.9683 42.5863L29.6437 42.911C29.5388 42.7893 29.4255 42.6979 29.3038 42.6371C29.1854 42.5762 29.0485 42.5458 28.8929 42.5458C28.7035 42.5458 28.553 42.588 28.4414 42.6726C28.3298 42.7537 28.274 42.8687 28.274 43.0175C28.274 43.1359 28.3044 43.2323 28.3653 43.3067C28.4296 43.3811 28.5124 43.4437 28.6139 43.4944C28.7153 43.5417 28.8269 43.5874 28.9487 43.6314C29.0738 43.6719 29.1973 43.7176 29.319 43.7683C29.4408 43.8191 29.5524 43.8833 29.6538 43.9611C29.7553 44.0389 29.8365 44.1403 29.8973 44.2655C29.9616 44.3872 29.9937 44.5411 29.9937 44.7271C29.9937 45.0383 29.8855 45.2818 29.669 45.4576C29.456 45.6335 29.1668 45.7214 28.8016 45.7214ZM34.5119 45.6707V44.1234L33.2082 42.1501H33.7611L34.7554 43.6719L35.7497 42.1501H36.2925L34.9888 44.1031V45.6707H34.5119ZM39.7707 45.6707V42.1501H40.1055L42.0636 44.7626V42.1501H42.5405V45.6707H42.2057L40.2475 43.0581V45.6707H39.7707ZM48.014 45.7214C47.757 45.7214 47.5202 45.6758 47.3038 45.5844C47.0907 45.4897 46.903 45.3595 46.7407 45.1938C46.5817 45.0281 46.4583 44.837 46.3704 44.6206C46.2824 44.4008 46.2385 44.164 46.2385 43.9104C46.2385 43.6567 46.2824 43.4217 46.3704 43.2052C46.4583 42.9854 46.5817 42.7926 46.7407 42.6269C46.8996 42.4612 47.0856 42.3327 47.2987 42.2414C47.5151 42.1467 47.7519 42.0993 48.0089 42.0993C48.2829 42.0993 48.5247 42.1467 48.7343 42.2414C48.9474 42.3361 49.1351 42.4646 49.2974 42.6269L48.9677 42.9567C48.8561 42.8315 48.7191 42.7335 48.5568 42.6624C48.3945 42.5914 48.2118 42.5559 48.0089 42.5559C47.7587 42.5559 47.5371 42.6151 47.3444 42.7335C47.155 42.8484 47.0045 43.0074 46.8929 43.2103C46.7846 43.4132 46.7305 43.6466 46.7305 43.9104C46.7305 44.1742 46.7846 44.4075 46.8929 44.6104C47.0045 44.8134 47.1567 44.974 47.3494 45.0924C47.5422 45.2074 47.762 45.2648 48.0089 45.2648C48.2287 45.2648 48.4198 45.2293 48.5822 45.1583C48.7445 45.0839 48.8815 44.9841 48.9931 44.859L49.3228 45.1837C49.1605 45.3528 48.9694 45.4847 48.7496 45.5794C48.5331 45.6741 48.2879 45.7214 48.014 45.7214ZM52.9524 45.6707V42.1501H53.4292V45.6707H52.9524ZM57.304 45.6707V42.1501H57.6388L59.597 44.7626V42.1501H60.0738V45.6707H59.739L57.7809 43.0581V45.6707H57.304ZM65.5423 45.7214C65.2954 45.7214 65.0637 45.6758 64.8473 45.5844C64.6342 45.4897 64.4465 45.3595 64.2842 45.1938C64.1252 45.0281 64.0001 44.8353 63.9088 44.6155C63.8175 44.3957 63.7718 44.1589 63.7718 43.9053C63.7718 43.6517 63.8175 43.4166 63.9088 43.2002C64.0001 42.9803 64.1269 42.7876 64.2893 42.6218C64.4516 42.4561 64.641 42.3276 64.8574 42.2363C65.0772 42.145 65.3157 42.0993 65.5727 42.0993C65.8534 42.0993 66.1121 42.1551 66.3489 42.2667C66.5856 42.375 66.7834 42.5288 66.9424 42.7284L66.6127 43.0581C66.5011 42.8958 66.3539 42.7723 66.1713 42.6878C65.9887 42.5999 65.7892 42.5559 65.5727 42.5559C65.3123 42.5559 65.084 42.6134 64.8879 42.7284C64.6917 42.8434 64.5378 43.0023 64.4262 43.2052C64.318 43.4082 64.2639 43.6415 64.2639 43.9053C64.2639 44.1725 64.318 44.4075 64.4262 44.6104C64.5378 44.8134 64.6883 44.9723 64.8777 45.0873C65.0705 45.2023 65.2869 45.2598 65.527 45.2598C65.8652 45.2598 66.1392 45.1718 66.3489 44.996C66.5619 44.8201 66.6871 44.5648 66.7243 44.23H65.5068V43.7937H67.2316V43.8647C67.2316 44.2739 67.1588 44.6155 67.0134 44.8895C66.8714 45.1634 66.6718 45.3714 66.4148 45.5134C66.1612 45.6521 65.8703 45.7214 65.5423 45.7214ZM75.9069 45.6707V44.1234L74.6032 42.1501H75.1561L76.1504 43.6719L77.1447 42.1501H77.6875L76.3838 44.1031V45.6707H75.9069ZM82.5854 45.7214C82.3351 45.7214 82.1018 45.6758 81.8853 45.5844C81.6723 45.4897 81.4829 45.3595 81.3172 45.1938C81.1548 45.0281 81.028 44.8353 80.9367 44.6155C80.8488 44.3957 80.8048 44.1589 80.8048 43.9053C80.8048 43.6517 80.8488 43.4166 80.9367 43.2002C81.028 42.9803 81.1531 42.7893 81.3121 42.6269C81.4744 42.4612 81.6621 42.3327 81.8752 42.2414C82.0916 42.1467 82.325 42.0993 82.5753 42.0993C82.8255 42.0993 83.0572 42.1467 83.2703 42.2414C83.4867 42.3327 83.6761 42.4612 83.8384 42.6269C84.0008 42.7893 84.1276 42.9803 84.2189 43.2002C84.3102 43.42 84.3559 43.6567 84.3559 43.9104C84.3559 44.164 84.3102 44.4008 84.2189 44.6206C84.1276 44.837 84.0008 45.0281 83.8384 45.1938C83.6795 45.3595 83.4918 45.4897 83.2753 45.5844C83.0623 45.6758 82.8323 45.7214 82.5854 45.7214ZM82.5753 45.2648C82.8255 45.2648 83.047 45.2074 83.2398 45.0924C83.436 44.974 83.5882 44.8134 83.6964 44.6104C83.808 44.4041 83.8638 44.1691 83.8638 43.9053C83.8638 43.6449 83.808 43.4132 83.6964 43.2103C83.5848 43.0074 83.4326 42.8484 83.2398 42.7335C83.047 42.6151 82.8255 42.5559 82.5753 42.5559C82.325 42.5559 82.1035 42.6151 81.9107 42.7335C81.7179 42.8484 81.5674 43.0074 81.4592 43.2103C81.351 43.4098 81.2969 43.6415 81.2969 43.9053C81.2969 44.1691 81.351 44.4041 81.4592 44.6104C81.5674 44.8134 81.7179 44.974 81.9107 45.0924C82.1035 45.2074 82.325 45.2648 82.5753 45.2648ZM89.3727 45.7214C89.1123 45.7214 88.879 45.6622 88.6727 45.5439C88.4697 45.4255 88.3091 45.2648 88.1907 45.0619C88.0724 44.859 88.0132 44.6273 88.0132 44.3669V42.1501H88.49V44.3568C88.49 44.5428 88.5289 44.7034 88.6067 44.8387C88.6845 44.974 88.7893 45.0788 88.9212 45.1532C89.0565 45.2276 89.207 45.2648 89.3727 45.2648C89.5418 45.2648 89.6923 45.2276 89.8242 45.1532C89.9561 45.0788 90.0593 44.974 90.1337 44.8387C90.2115 44.7034 90.2503 44.5445 90.2503 44.3619V42.1501H90.7323V44.372C90.7323 44.6324 90.6731 44.8641 90.5547 45.067C90.4364 45.2699 90.274 45.4306 90.0677 45.5489C89.8648 45.6639 89.6331 45.7214 89.3727 45.7214ZM94.5604 45.6707V42.1501H95.854C96.0772 42.1501 96.27 42.194 96.4323 42.282C96.598 42.3665 96.7266 42.4832 96.8179 42.632C96.9092 42.7808 96.9548 42.9516 96.9548 43.1444C96.9548 43.4318 96.8618 43.6652 96.6758 43.8444C96.4898 44.0237 96.2412 44.1201 95.9301 44.1336L97.1933 45.6707H96.5896L95.3467 44.1387H95.0373V45.6707H94.5604ZM95.8388 42.566H95.0373V43.7379H95.8337C96.04 43.7379 96.199 43.6855 96.3106 43.5806C96.4222 43.4758 96.478 43.3337 96.478 43.1545C96.478 42.9854 96.4222 42.8451 96.3106 42.7335C96.199 42.6218 96.0417 42.566 95.8388 42.566ZM104.898 45.6707V42.1501H105.233L107.191 44.7626V42.1501H107.668V45.6707H107.334L105.375 43.0581V45.6707H104.898ZM112.863 45.7214C112.602 45.7214 112.369 45.6622 112.163 45.5439C111.96 45.4255 111.799 45.2648 111.681 45.0619C111.562 44.859 111.503 44.6273 111.503 44.3669V42.1501H111.98V44.3568C111.98 44.5428 112.019 44.7034 112.097 44.8387C112.175 44.974 112.279 45.0788 112.411 45.1532C112.547 45.2276 112.697 45.2648 112.863 45.2648C113.032 45.2648 113.182 45.2276 113.314 45.1532C113.446 45.0788 113.549 44.974 113.624 44.8387C113.702 44.7034 113.74 44.5445 113.74 44.3619V42.1501H114.222V44.372C114.222 44.6324 114.163 44.8641 114.045 45.067C113.926 45.2699 113.764 45.4306 113.558 45.5489C113.355 45.6639 113.123 45.7214 112.863 45.7214ZM118.05 45.6707V42.1501H118.385L119.765 44.4177L121.14 42.1501H121.475V45.6707H120.998V43.1951L119.933 44.9503H119.598L118.527 43.1951V45.6707H118.05ZM125.35 45.6707V42.1501H126.669C126.895 42.1501 127.086 42.1923 127.242 42.2769C127.398 42.3581 127.514 42.4663 127.592 42.6016C127.673 42.7368 127.714 42.8856 127.714 43.048C127.71 43.3693 127.568 43.6161 127.288 43.7886C127.47 43.8766 127.612 43.9966 127.714 44.1488C127.815 44.301 127.866 44.4769 127.866 44.6764C127.866 44.8624 127.82 45.0315 127.729 45.1837C127.638 45.3325 127.506 45.4509 127.333 45.5388C127.161 45.6267 126.953 45.6707 126.709 45.6707H125.35ZM126.659 42.566H125.827V43.6111H126.679C126.848 43.6111 126.982 43.5671 127.08 43.4792C127.181 43.3879 127.232 43.2577 127.232 43.0886C127.232 42.9195 127.179 42.7909 127.075 42.703C126.97 42.6117 126.831 42.566 126.659 42.566ZM126.75 44.0271H125.827V45.2547H126.735C126.934 45.2547 127.091 45.1955 127.206 45.0772C127.325 44.9554 127.384 44.81 127.384 44.6409C127.384 44.4718 127.327 44.328 127.212 44.2097C127.097 44.0879 126.943 44.0271 126.75 44.0271ZM131.554 45.6707V42.1501H133.873V42.5863H132.031V43.6618H133.731V44.0778H132.031V45.2344H133.898V45.6707H131.554ZM137.59 45.6707V42.1501H138.884C139.107 42.1501 139.3 42.194 139.462 42.282C139.628 42.3665 139.756 42.4832 139.848 42.632C139.939 42.7808 139.985 42.9516 139.985 43.1444C139.985 43.4318 139.892 43.6652 139.706 43.8444C139.52 44.0237 139.271 44.1201 138.96 44.1336L140.223 45.6707H139.619L138.377 44.1387H138.067V45.6707H137.59ZM138.869 42.566H138.067V43.7379H138.864C139.07 43.7379 139.229 43.6855 139.34 43.5806C139.452 43.4758 139.508 43.3337 139.508 43.1545C139.508 42.9854 139.452 42.8451 139.34 42.7335C139.229 42.6218 139.072 42.566 138.869 42.566ZM144.63 45.7214C144.353 45.7214 144.114 45.6707 143.915 45.5692C143.719 45.4678 143.546 45.3207 143.397 45.1279L143.722 44.8032C143.834 44.9588 143.962 45.0772 144.108 45.1583C144.253 45.2361 144.432 45.275 144.645 45.275C144.855 45.275 145.022 45.2293 145.148 45.138C145.276 45.0467 145.34 44.9216 145.34 44.7626C145.34 44.6307 145.31 44.5242 145.249 44.443C145.188 44.3619 145.105 44.2959 145 44.2452C144.899 44.1911 144.787 44.1437 144.666 44.1031C144.544 44.0592 144.422 44.0135 144.3 43.9662C144.179 43.9154 144.065 43.8546 143.96 43.7836C143.859 43.7091 143.778 43.6128 143.717 43.4944C143.656 43.376 143.626 43.2272 143.626 43.048C143.626 42.8518 143.673 42.6827 143.768 42.5407C143.866 42.3986 143.998 42.2904 144.163 42.216C144.332 42.1382 144.522 42.0993 144.732 42.0993C144.962 42.0993 145.166 42.145 145.345 42.2363C145.528 42.3242 145.678 42.4409 145.797 42.5863L145.472 42.911C145.367 42.7893 145.254 42.6979 145.132 42.6371C145.014 42.5762 144.877 42.5458 144.721 42.5458C144.532 42.5458 144.382 42.588 144.27 42.6726C144.158 42.7537 144.103 42.8687 144.103 43.0175C144.103 43.1359 144.133 43.2323 144.194 43.3067C144.258 43.3811 144.341 43.4437 144.442 43.4944C144.544 43.5417 144.655 43.5874 144.777 43.6314C144.902 43.6719 145.026 43.7176 145.148 43.7683C145.269 43.8191 145.381 43.8833 145.482 43.9611C145.584 44.0389 145.665 44.1403 145.726 44.2655C145.79 44.3872 145.822 44.5411 145.822 44.7271C145.822 45.0383 145.714 45.2818 145.498 45.4576C145.284 45.6335 144.995 45.7214 144.63 45.7214Z" fill="#072B2C"/>
</svg>
